<svg xmlns="http://www.w3.org/2000/svg" width="40" height="52" fill="none" viewBox="0 0 40 52"><path fill="#7611F7" fill-rule="evenodd" d="M40 32C40 42.7696 31.2696 51.5 20.5 51.5L0 51.5L1.44248e-06 18.5C1.03208e-06 27.8888 7.61116 35.5 17 35.5L23 35.5C32.3888 35.5 40 27.8888 40 18.5L40 32ZM40 13.5C40 13.1643 39.9903 12.8309 39.9711 12.5L40 12.5L40 13.5ZM0.0289247 12.5C0.00973298 12.8309 1.67571e-06 13.1643 1.66103e-06 13.5L1.70474e-06 12.5L0.0289247 12.5Z" clip-rule="evenodd"/><rect width="27" height="28" fill="#fff" rx="13.5" transform="matrix(4.37114e-08 -1 -1 -4.37114e-08 34 27.5)"/></svg>