<svg width="143" height="45" viewBox="0 0 143 45" fill="none" xmlns="http://www.w3.org/2000/svg">
  <mask id="airbnb" style="mask-type:alpha" maskUnits="userSpaceOnUse" x="0" y="0" width="143" height="45">
  <path d="M41.0102 31.5288C40.7859 30.9888 40.5757 30.4212 40.3515 29.9366L39.3143 27.6244L39.2723 27.5829C36.1889 20.9371 32.8952 14.1805 29.4054 7.53469L29.2652 7.25778C28.9149 6.60705 28.5645 5.88708 28.2001 5.2225C27.7516 4.43331 27.3171 3.58874 26.6023 2.78571C25.9056 1.94547 25.0287 1.26851 24.035 0.803673C23.0413 0.338836 21.9555 0.0977173 20.856 0.0977173C19.7565 0.0977173 18.6707 0.338836 17.677 0.803673C16.6833 1.26851 15.8064 1.94547 15.1096 2.78571C14.4509 3.58874 13.9604 4.43331 13.5119 5.2225C13.1615 5.94246 12.8111 6.64858 12.4467 7.29932L12.3066 7.57623C8.87277 14.222 5.52308 20.9786 2.43968 27.6244L2.35559 27.7075C2.04725 28.4274 1.68285 29.1751 1.33246 29.9781C1.10822 30.4627 0.883969 30.9888 0.659722 31.5703C0.0543008 33.093 -0.139029 34.7453 0.0987853 36.3643C0.3366 37.9833 0.997351 39.5131 2.01592 40.803C3.03449 42.0929 4.37571 43.0984 5.90742 43.7203C7.43912 44.3422 9.10844 44.5591 10.7508 44.3497C12.3254 44.1449 13.8416 43.6268 15.2078 42.8267C17.0298 41.816 18.7817 40.3483 20.7439 38.23C22.706 40.3483 24.5 41.816 26.28 42.8405C27.9917 43.833 29.9301 44.3808 31.9142 44.4327C34.2118 44.4422 36.4353 43.6301 38.1741 42.1465C39.913 40.6628 41.0498 38.6078 41.3746 36.3609C41.75 34.7462 41.623 33.0571 41.0102 31.515V31.5288ZM20.884 33.8272C18.4734 30.7812 16.9036 27.9844 16.371 25.5891C16.1504 24.7015 16.1028 23.7806 16.2309 22.8754C16.329 22.1693 16.5953 21.5463 16.9597 21.0201C17.8006 19.8156 19.2722 19.0679 20.884 19.0679C21.6494 19.0448 22.4087 19.2098 23.0936 19.5482C23.7786 19.8865 24.3678 20.3875 24.8083 21.0063C25.1727 21.5601 25.439 22.1693 25.5231 22.8754C25.6633 23.6785 25.6072 24.6061 25.383 25.5891C24.8504 27.9428 23.2806 30.7673 20.884 33.8272ZM38.7397 35.8763C38.5804 37.0171 38.1214 38.0967 37.4083 39.0077C36.6951 39.9186 35.7528 40.6291 34.6752 41.0683C33.61 41.5114 32.4327 41.636 31.2835 41.5114C30.1622 41.3729 29.041 41.0129 27.8917 40.3483C25.9835 39.1832 24.2677 37.7357 22.8041 36.0563C25.7474 32.4565 27.5273 29.1751 28.2001 26.2537C28.5224 24.8692 28.5645 23.6231 28.4243 22.4739C28.2493 21.3847 27.8381 20.3456 27.219 19.4279C26.512 18.4328 25.5684 17.6245 24.4712 17.074C23.3739 16.5236 22.1565 16.2479 20.9261 16.2712C18.3332 16.2712 16.0206 17.4619 14.6191 19.4141C13.9882 20.3295 13.5804 21.3768 13.4278 22.4739C13.2456 23.6369 13.2876 24.9245 13.652 26.2537C14.3248 29.1751 16.1468 32.498 19.048 36.084C17.6093 37.7955 15.8894 39.2558 13.9604 40.4037C12.7971 41.0683 11.6899 41.4144 10.5686 41.5529C8.82496 41.7735 7.06359 41.3054 5.66739 40.2502C4.27118 39.195 3.353 37.6381 3.11242 35.9178C2.97227 34.8102 3.07038 33.7025 3.51887 32.4565C3.65903 32.0134 3.86926 31.5703 4.09351 31.0442C4.40185 30.3243 4.76625 29.5766 5.11663 28.829L5.1727 28.732C8.20003 22.1278 11.5077 15.385 14.9415 8.78078L15.0816 8.50387C15.432 7.83929 15.7824 7.13317 16.1468 6.46859C16.5112 5.76247 16.9036 5.08405 17.4082 4.53023C17.8449 4.01521 18.3906 3.60103 19.0069 3.31684C19.6232 3.03266 20.295 2.88538 20.9751 2.88538C21.6552 2.88538 22.327 3.03266 22.9433 3.31684C23.5596 3.60103 24.1053 4.01521 24.542 4.53023C25.0326 5.08405 25.439 5.76247 25.8034 6.46859C26.1538 7.13317 26.5042 7.85313 26.8686 8.50387L27.0088 8.78078C30.4285 15.385 33.7362 22.1278 36.8196 28.732L36.8616 28.7736C37.226 29.4935 37.5344 30.2966 37.8847 30.9888C38.109 31.5288 38.3332 31.958 38.4734 32.4149C38.7397 33.661 38.8798 34.7686 38.7397 35.8763V35.8763ZM58.2492 33.5226C57.1931 33.5378 56.147 33.318 55.1886 32.8794C54.2303 32.4407 53.3842 31.7946 52.7131 30.9888C51.2051 29.272 50.4048 27.0582 50.4706 24.7861C50.4475 22.4645 51.2737 20.2127 52.7972 18.4449C53.5019 17.6289 54.3791 16.9754 55.3671 16.5304C56.355 16.0855 57.4297 15.8599 58.5155 15.8696C59.5371 15.842 60.5491 16.0715 61.4562 16.5365C62.3634 17.0016 63.1359 17.6868 63.7012 18.528L63.8413 16.3542H67.9338V33.0795H63.8273L63.6872 30.6427C63.1044 31.5408 62.2988 32.2768 61.3471 32.7808C60.3953 33.2849 59.3289 33.5402 58.2492 33.5226V33.5226ZM59.3144 29.5351C60.1272 29.5351 60.842 29.3135 61.5148 28.912C62.1315 28.469 62.636 27.8875 63.0284 27.1813C63.3788 26.4752 63.561 25.6307 63.561 24.6892C63.6157 23.8715 63.4545 23.0537 63.0934 22.316C62.7323 21.5782 62.1835 20.9456 61.5008 20.4802C60.8447 20.0764 60.0873 19.8623 59.3144 19.8623C58.5414 19.8623 57.784 20.0764 57.1279 20.4802C56.5113 20.9232 56.0067 21.5047 55.6143 22.2108C55.2436 22.9896 55.0613 23.8427 55.0817 24.703C55.027 25.5207 55.1882 26.3385 55.5493 27.0762C55.9104 27.814 56.4592 28.4465 57.142 28.912C57.8007 29.3135 58.5155 29.5351 59.3144 29.5351ZM74.9416 11.8406C74.9416 12.3252 74.8575 12.7683 74.6332 13.1282C74.409 13.4744 74.1006 13.7928 73.6942 14.0143C73.2878 14.2359 72.8533 14.3189 72.4048 14.3189C71.9563 14.3189 71.5078 14.2359 71.1013 14.0143C70.7169 13.8029 70.3937 13.4979 70.1623 13.1282C69.9453 12.7338 69.8388 12.2893 69.854 11.8406C69.854 11.3422 69.9521 10.8991 70.1623 10.553C70.3866 10.1376 70.7089 9.88841 71.1013 9.66688C71.5078 9.44536 71.9423 9.34844 72.4048 9.34844C72.8509 9.33828 73.2921 9.44266 73.6851 9.65137C74.0782 9.86008 74.4097 10.166 74.6472 10.5391C74.8512 10.9428 74.9523 11.3896 74.9416 11.8406V11.8406ZM70.1763 33.0241V16.3265H74.6332V33.0518H70.1623L70.1763 33.0241ZM86.5464 20.7017V20.7571C86.3361 20.6602 86.0558 20.6186 85.8456 20.5771C85.5653 20.5217 85.341 20.5217 85.0747 20.5217C83.8274 20.5217 82.8883 20.8817 82.2716 21.6293C81.5989 22.3908 81.2906 23.4569 81.2906 24.8276V33.038H76.8196V16.3127H80.9262L81.0663 18.8464C81.5148 17.9603 82.0474 17.2957 82.8042 16.7973C83.5571 16.313 84.4433 16.0711 85.341 16.105C85.6634 16.105 85.9717 16.1327 86.238 16.1881C86.3782 16.2296 86.4623 16.2296 86.5464 16.2712V20.7017V20.7017ZM88.3403 33.0241V9.4592H92.7973V18.4587C93.4279 17.6557 94.1427 17.0326 95.0397 16.5481C96.4598 15.8603 98.073 15.6652 99.619 15.9942C101.165 16.3233 102.554 17.1574 103.561 18.3618C105.072 20.0823 105.873 22.3015 105.804 24.5784C105.827 26.9 105 29.1518 103.477 30.9196C102.772 31.7356 101.895 32.3891 100.907 32.8341C99.9192 33.279 98.8445 33.5046 97.7587 33.4949C96.7371 33.5225 95.7251 33.293 94.818 32.828C93.9108 32.3629 93.1383 31.6777 92.573 30.8365L92.4328 33.0103L88.3403 33.0518V33.0241ZM96.9598 29.5351C97.7587 29.5351 98.4735 29.3135 99.1462 28.912C99.7629 28.469 100.267 27.8875 100.66 27.1813C101.024 26.4752 101.193 25.6307 101.193 24.6892C101.193 23.7615 101.024 22.917 100.66 22.2108C100.292 21.53 99.7748 20.9387 99.1462 20.4802C98.4902 20.0764 97.7328 19.8623 96.9598 19.8623C96.1869 19.8623 95.4294 20.0764 94.7734 20.4802C94.1427 20.9232 93.6522 21.5047 93.2457 22.2108C92.8751 22.9896 92.6928 23.8427 92.7132 24.703C92.6585 25.5207 92.8196 26.3385 93.1808 27.0762C93.5419 27.814 94.0907 28.4465 94.7734 28.912C95.4322 29.3135 96.1469 29.5351 96.9598 29.5351ZM107.485 33.038V16.3127H111.592L111.732 18.4864C112.248 17.6532 112.98 16.9713 113.852 16.5112C114.725 16.0512 115.706 15.8297 116.694 15.8696C117.823 15.8504 118.934 16.1606 119.886 16.7614C120.838 17.3623 121.59 18.2272 122.047 19.2479C122.538 20.3002 122.804 21.6016 122.804 23.0554V33.0795H118.333V23.6369C118.333 22.4739 118.067 21.5601 117.535 20.8817C117.002 20.2171 116.273 19.8571 115.348 19.8571C114.675 19.8571 114.087 19.9956 113.568 20.3002C113.078 20.6186 112.671 21.0201 112.363 21.5878C112.051 22.1616 111.896 22.8059 111.914 23.4569V33.038H107.485V33.038ZM125.033 33.038V9.44536H129.504V18.4449C130.109 17.6374 130.897 16.9804 131.805 16.5262C132.712 16.0719 133.714 15.8329 134.731 15.8281C135.788 15.8128 136.834 16.0327 137.792 16.4713C138.75 16.9099 139.596 17.5561 140.268 18.3618C141.768 20.0821 142.563 22.2947 142.496 24.5646C142.52 26.8864 141.694 29.1386 140.169 30.9058C139.465 31.7218 138.588 32.3753 137.6 32.8202C136.612 33.2651 135.537 33.4907 134.451 33.481C133.43 33.5086 132.418 33.2791 131.51 32.8141C130.603 32.3491 129.831 31.6638 129.265 30.8227L129.139 32.9964L125.033 33.038V33.038ZM133.694 29.5351C134.507 29.5351 135.222 29.3135 135.881 28.912C136.511 28.469 137.002 27.8875 137.408 27.1813C137.759 26.4752 137.941 25.6307 137.941 24.6892C137.996 23.8715 137.835 23.0537 137.473 22.316C137.112 21.5782 136.563 20.9456 135.881 20.4802C135.225 20.0764 134.467 19.8623 133.694 19.8623C132.921 19.8623 132.164 20.0764 131.508 20.4802C130.891 20.9232 130.387 21.5047 129.994 22.2108C129.603 22.9826 129.42 23.8409 129.462 24.703C129.407 25.5207 129.568 26.3385 129.929 27.0762C130.29 27.814 130.839 28.4465 131.522 28.912C132.181 29.3135 132.853 29.5351 133.694 29.5351Z" fill="#FF385C"/>
  </mask>
  <g mask="url(#airbnb)">
  <rect x="-1.08618" y="0.0977173" width="145.541" height="44.3351" fill="#A0A2A4"/>
  </g>
  </svg>
  