<svg xmlns="http://www.w3.org/2000/svg" width="61" height="60" fill="none" viewBox="0 0 61 60"><path fill="#312DE5" d="M52.5053 11.2283C50.2303 10.7674 48.4542 9.33019 47.8841 7.49039L47.7859 7.17578L47.6897 7.49039C47.1197 9.33019 45.3418 10.7674 43.0668 11.2283L42.6794 11.3069L43.0668 11.3855C45.3418 11.8459 47.1197 13.2837 47.6897 15.1233L47.7859 15.4373L47.8841 15.1233C48.4542 13.2837 50.2303 11.8459 52.5053 11.3855L52.8943 11.3069L52.5053 11.2283Z"/><path fill="#312DE5" d="M60.13 17.1205C58.6853 16.8279 57.5596 15.9166 57.1957 14.7492L57.1344 14.5503L57.0732 14.7492C56.7111 15.9166 55.5835 16.8279 54.139 17.1205L53.894 17.17L54.139 17.2211C55.5835 17.5131 56.7111 18.4244 57.0732 19.5925L57.1344 19.7913L57.1957 19.5925C57.5596 18.4244 58.6853 17.5131 60.13 17.2211L60.3748 17.17L60.13 17.1205Z"/><path fill="#8AC9F9" d="M34.4863 42.6143H13.0371V59.9603H34.4863V42.6143Z"/><path fill="#5D8EF9" d="M39.6085 37.8037L34.4862 42.6142V59.9604L39.6388 53.5876V37.8037H39.6085Z"/><path fill="#6DC5F2" d="M18.1594 37.8037L13.0371 42.6142H34.4863L39.6086 37.8037H18.1594Z"/><path fill="#38AAE4" d="M34.4713 23.7124H13.0222V41.0586H34.4713V23.7124Z"/><path fill="#312DE5" d="M39.5933 18.9019L34.4713 23.7125V41.0587L39.6236 34.6857V18.9019H39.5933Z"/><path fill="#3B84F0" d="M18.1442 18.9019L13.0222 23.7125H34.4713L39.5934 18.9019H18.1442Z"/><path fill="#FFE37B" d="M34.4713 4.81055H13.0222V22.1569H34.4713V4.81055Z"/><path fill="#EFAB11" d="M39.5933 0L34.4713 4.81046V22.1568L39.6236 15.7839V0H39.5933Z"/><path fill="#FFBE1B" d="M18.1442 0L13.0222 4.81046H34.4713L39.5934 0H18.1442Z"/><path fill="#5D8EF9" d="M59.4817 39.7996C56.3055 39.1565 53.8259 37.1499 53.0289 34.581L52.8951 34.144L52.7579 34.581C51.9624 37.1499 49.4828 39.1565 46.3047 39.7996L45.764 39.909L46.3047 40.0203C49.4826 40.6637 51.9624 42.6689 52.7579 45.2376L52.8951 45.6761L53.0289 45.2376C53.8259 42.6687 56.3055 40.6637 59.4817 40.0203L60.0242 39.909L59.4817 39.7996Z"/><path fill="#5D8EF9" d="M10.2881 46.0952L6.33052 42.8946C5.86866 42.5211 5.12018 42.5211 4.65832 42.8946L0.700704 46.0952C0.238844 46.4685 0.238844 47.074 0.700704 47.4475C1.16256 47.8208 1.91105 47.8208 2.37291 47.4475L4.3121 45.8792V59.0042C4.3121 59.5324 4.8416 59.9605 5.49454 59.9605C6.14748 59.9605 6.67698 59.5324 6.67698 59.0042V45.8792L8.61617 47.4475C8.84722 47.6341 9.14969 47.7275 9.45239 47.7275C9.7551 47.7275 10.0576 47.6341 10.2886 47.4475C10.75 47.074 10.75 46.4685 10.2881 46.0952Z"/><path fill="#312DE5" d="M10.2881 27.1933L6.33052 23.9928C5.86866 23.6193 5.12018 23.6193 4.65832 23.9928L0.700704 27.1933C0.238844 27.5666 0.238844 28.1721 0.700704 28.5454C1.16256 28.9189 1.91105 28.9189 2.37291 28.5454L4.3121 26.9774V40.1024C4.3121 40.6306 4.8416 41.0586 5.49454 41.0586C6.14748 41.0586 6.67698 40.6306 6.67698 40.1024V26.9774L8.61617 28.5454C8.84722 28.7323 9.14969 28.8256 9.45239 28.8256C9.7551 28.8256 10.0576 28.7323 10.2886 28.5454C10.75 28.1721 10.75 27.5666 10.2881 27.1933Z"/><path fill="#FFBE1B" d="M10.2881 8.29146L6.33052 5.09092C5.86866 4.71741 5.12018 4.71741 4.65832 5.09092L0.700704 8.29146C0.238844 8.66477 0.238844 9.27026 0.700704 9.64358C1.16256 10.0171 1.91105 10.0171 2.37291 9.64358L4.3121 8.07554V21.2007C4.3121 21.7289 4.8416 22.1569 5.49454 22.1569C6.14748 22.1569 6.67698 21.7289 6.67698 21.2007V8.07554L8.61617 9.64358C8.84722 9.83043 9.14969 9.92376 9.45239 9.92376C9.7551 9.92376 10.0576 9.83043 10.2886 9.64358C10.75 9.27026 10.75 8.66477 10.2881 8.29146Z"/></svg>