<svg xmlns="http://www.w3.org/2000/svg" width="72" height="89" fill="none" viewBox="0 0 72 89"><path fill="#312DE5" d="M71.5148 48.3978C69.0951 47.7917 67.2037 45.9003 66.5976 43.4806L66.4943 43.0674L66.3916 43.4806C65.7843 45.9003 63.8934 47.7917 61.4737 48.3978L61.0591 48.5023L61.4737 48.6059C63.8934 49.212 65.7846 51.1025 66.3916 53.5222L66.4943 53.9363L66.5976 53.5222C67.204 51.1025 69.0951 49.212 71.5148 48.6059L71.929 48.5023L71.5148 48.3978Z"/><path fill="#FFBE1B" d="M51.3211 8.54429C49.4986 8.08819 48.076 6.6653 47.6211 4.84374L47.5421 4.53296L47.4636 4.84374C47.0086 6.6653 45.5857 8.08819 43.763 8.54429L43.4527 8.6228L43.763 8.69968C45.5857 9.15647 47.0086 10.5794 47.4636 12.4019L47.5421 12.7117L47.6211 12.4019C48.076 10.5794 49.4986 9.15647 51.3211 8.69968L51.6319 8.6228L51.3211 8.54429Z"/><path fill="#FFBE1B" d="M38.5076 6.23437C35.6745 5.52586 33.4631 3.31406 32.7539 0.482813L32.6344 0L32.5111 0.482813C31.8024 3.31406 29.5924 5.52586 26.7596 6.23461L26.2772 6.35695L26.7596 6.47555C29.5924 7.18594 31.8024 9.39773 32.5111 12.2309L32.6344 12.712L32.7539 12.2309C33.4631 9.39797 35.6745 7.18617 38.5076 6.47555L38.9897 6.35695L38.5076 6.23437Z"/><path fill="#312DE5" d="M25.0332 81.9017C22.1553 81.1805 19.9083 78.9329 19.1869 76.0552L19.0637 75.5645L18.9397 76.0552C18.2197 78.9329 15.972 81.1803 13.0944 81.9017L12.6036 82.025L13.0944 82.148C15.972 82.8683 18.2197 85.115 18.9397 87.9943L19.0637 88.4853L19.1869 87.9943C19.9083 85.1148 22.1553 82.8683 25.0332 82.148L25.5249 82.025L25.0332 81.9017Z"/><path fill="#312DE5" d="M52.6201 19.4872C52.6201 19.3684 52.625 19.2507 52.6318 19.1338L35.7898 21.5467C35.6876 22.3562 35.3401 23.1388 34.7394 23.7611C34.6093 23.8956 34.4701 24.0135 34.3271 24.1239L52.9625 21.4543C52.741 20.8398 52.6201 20.1779 52.6201 19.4872Z"/><path fill="#312DE5" d="M30.1665 24.3059C29.9288 24.1531 29.7026 23.9733 29.4964 23.7596C28.9294 23.1727 28.5877 22.4429 28.4647 21.6823L11.607 19.1677C11.6126 19.2737 11.6162 19.3803 11.6162 19.4876C11.6162 20.1901 11.4915 20.8632 11.2632 21.4862L30.1665 24.3059Z"/><path fill="#312DE5" d="M8.10063 24.8237C7.39704 25.1261 6.62219 25.2944 5.80797 25.2944C5.8068 25.2944 5.80587 25.2941 5.8047 25.2941L8.89352 40.3286C9.84298 40.3281 10.7922 40.7024 11.5169 41.4517L8.10063 24.8237Z"/><path fill="#312DE5" d="M8.8526 48L5.74502 63.9508C5.76612 63.9506 5.78698 63.9492 5.80784 63.9492C6.60119 63.9492 7.35706 64.1088 8.04612 64.3966L11.446 46.9448C10.7199 47.6587 9.78565 48.0115 8.8526 48Z"/><path fill="#312DE5" d="M13.2773 42.7024H12.3236C12.6717 43.5768 12.6909 44.5561 12.3876 45.4443H13.2016C13.1899 45.1715 13.1807 44.898 13.1807 44.6224C13.1807 43.9741 13.2138 43.3338 13.2773 42.7024Z"/><path fill="#312DE5" d="M30.946 24.6838V25.7249C31.3339 25.7013 31.7239 25.6853 32.1179 25.6853C32.5119 25.6853 32.9019 25.7013 33.2898 25.7249V24.6843C32.5297 24.9459 31.7061 24.9459 30.946 24.6838Z"/><path fill="#312DE5" d="M53.5052 22.5684L44.972 30.7206C45.546 31.2515 46.0865 31.8177 46.5909 32.4156L55.1245 24.2634C54.4764 23.8143 53.9247 23.2373 53.5052 22.5684Z"/><path fill="#312DE5" d="M10.7304 22.5691C10.3106 23.238 9.75865 23.8148 9.11107 24.2636L17.6442 32.4157C18.1486 31.818 18.689 31.2517 19.2628 30.7207L10.7304 22.5691Z"/><path fill="#312DE5" d="M46.5905 56.8276C46.0862 57.4253 45.5455 57.9915 44.9717 58.5224L53.5055 66.6751C53.9253 66.0062 54.477 65.4292 55.1246 64.9804L46.5905 56.8276Z"/><path fill="#312DE5" d="M17.6444 56.8276L9.11082 64.9804C9.75887 65.429 10.3104 66.006 10.7301 66.6749L19.2635 58.5226C18.6895 57.9915 18.149 57.4253 17.6444 56.8276Z"/><path fill="#312DE5" d="M51.9115 42.7024H50.9581C51.0216 43.3338 51.0547 43.9741 51.0547 44.6224C51.0547 44.898 51.0455 45.1715 51.0338 45.4443H51.8476C51.5445 44.5561 51.5637 43.5771 51.9115 42.7024Z"/><path fill="#312DE5" d="M58.4281 25.2943C57.6328 25.2943 56.8756 25.1342 56.1853 24.8452L52.9838 41.2027C53.7216 40.5737 54.6382 40.2877 55.5413 40.3383L58.4857 25.2929C58.4665 25.2931 58.4475 25.2943 58.4281 25.2943Z"/><path fill="#312DE5" d="M55.1736 47.9931C54.2809 47.9519 53.3996 47.583 52.7171 46.8777C52.6412 46.7992 52.5713 46.7165 52.5034 46.6331L56.1402 64.4177C56.8423 64.1165 57.6155 63.9492 58.4281 63.9492C58.4312 63.9492 58.4337 63.9494 58.4366 63.9494L55.1736 47.9931Z"/><path fill="#312DE5" d="M32.1179 63.5572C31.7239 63.5572 31.3339 63.5412 30.946 63.5176V64.5603C31.7061 64.2987 32.5297 64.2987 33.2898 64.5605V63.5173C32.9019 63.5412 32.5119 63.5572 32.1179 63.5572Z"/><path fill="#312DE5" d="M52.9728 67.7585L34.0702 64.9392C34.3074 65.0918 34.5331 65.2711 34.7391 65.4844C35.3063 66.0715 35.648 66.8018 35.7708 67.5626L52.6292 70.0769C52.6235 69.971 52.62 69.8644 52.62 69.757C52.62 69.0546 52.7447 68.3817 52.9728 67.7585Z"/><path fill="#312DE5" d="M11.2739 67.7904C11.4949 68.4047 11.6161 69.0668 11.6161 69.7573C11.6161 69.8761 11.6111 69.9937 11.6043 70.1107L28.4456 67.698C28.548 66.889 28.8954 66.1069 29.4958 65.4846C29.6264 65.3496 29.7658 65.2312 29.9097 65.1206L11.2739 67.7904Z"/><path fill="#5D8EF9" d="M5.80804 13.6792C2.59992 13.6792 0 16.2794 0 19.4872C0 22.6951 2.60015 25.2943 5.80804 25.2943C9.01593 25.2943 11.6161 22.6951 11.6161 19.4872C11.6161 16.2794 9.01593 13.6792 5.80804 13.6792Z"/><path fill="#FFBE1B" d="M32.1178 25.6853C21.659 25.6853 13.1807 34.1622 13.1807 44.6221C13.1807 55.0794 21.659 63.5573 32.1178 63.5573C42.5756 63.5573 51.0546 55.0797 51.0546 44.6221C51.0546 34.1622 42.5756 25.6853 32.1178 25.6853Z"/><path fill="#FFE37B" d="M32.1178 30.407C24.2674 30.407 17.9025 36.7703 17.9025 44.6223C17.9025 52.4715 24.2674 58.8357 32.1178 58.8357C39.9675 58.8357 46.3319 52.4715 46.3319 44.6223C46.3317 36.7703 39.9675 30.407 32.1178 30.407Z"/><path fill="#8AC9F9" d="M5.80801 15.1279C3.40074 15.1279 1.4484 17.0791 1.4484 19.4873C1.4484 21.8946 3.4005 23.8467 5.80801 23.8467C8.21551 23.8467 10.1676 21.8946 10.1676 19.4873C10.1676 17.0791 8.21551 15.1279 5.80801 15.1279Z"/><path fill="#5D8EF9" d="M58.4281 13.6792C55.2199 13.6792 52.62 16.2794 52.62 19.4872C52.62 22.6951 55.2202 25.2943 58.4281 25.2943C61.635 25.2943 64.2349 22.6951 64.2349 19.4872C64.2349 16.2794 61.6348 13.6792 58.4281 13.6792Z"/><path fill="#8AC9F9" d="M58.4281 15.1279C56.0201 15.1279 54.068 17.0791 54.068 19.4873C54.068 21.8946 56.0201 23.8467 58.4281 23.8467C60.8356 23.8467 62.7872 21.8946 62.7872 19.4873C62.787 17.0791 60.8354 15.1279 58.4281 15.1279Z"/><path fill="#5D8EF9" d="M5.80804 63.9492C2.59992 63.9492 0 66.5494 0 69.7573C0 72.9652 2.60015 75.5644 5.80804 75.5644C9.01593 75.5644 11.6161 72.9652 11.6161 69.7573C11.6161 66.5494 9.01593 63.9492 5.80804 63.9492Z"/><path fill="#8AC9F9" d="M5.80801 65.3979C3.40074 65.3979 1.4484 67.3491 1.4484 69.7573C1.4484 72.1646 3.4005 74.1167 5.80801 74.1167C8.21551 74.1167 10.1676 72.1646 10.1676 69.7573C10.1676 67.3491 8.21551 65.3979 5.80801 65.3979Z"/><path fill="#5D8EF9" d="M58.4281 63.9492C55.2199 63.9492 52.62 66.5494 52.62 69.7573C52.62 72.9652 55.2202 75.5644 58.4281 75.5644C61.635 75.5644 64.2349 72.9652 64.2349 69.7573C64.2349 66.5494 61.6348 63.9492 58.4281 63.9492Z"/><path fill="#8AC9F9" d="M58.4281 65.3979C56.0201 65.3979 54.068 67.3491 54.068 69.7573C54.068 72.1646 56.0201 74.1167 58.4281 74.1167C60.8356 74.1167 62.7872 72.1646 62.7872 69.7573C62.787 67.3491 60.8354 65.3979 58.4281 65.3979Z"/><path fill="#5D8EF9" d="M34.739 18.3342C33.2911 16.8356 30.9438 16.8356 29.4963 18.3342C28.0471 19.8318 28.0485 22.2606 29.4963 23.7592C30.9438 25.2588 33.2913 25.2597 34.739 23.7611C36.1868 22.2616 36.1868 19.8318 34.739 18.3342Z"/><path fill="#8AC9F9" d="M34.0857 19.0108C32.9987 17.8854 31.2366 17.8854 30.1494 19.0108C29.063 20.1354 29.063 21.959 30.1494 23.0836C31.2366 24.209 32.9987 24.209 34.0857 23.0836C35.172 21.959 35.1711 20.1354 34.0857 19.0108Z"/><path fill="#5D8EF9" d="M57.9612 41.4518C56.5126 39.9539 54.1662 39.9539 52.7173 41.4518C51.2698 42.9504 51.2698 45.3799 52.7173 46.8778C54.1662 48.3755 56.5126 48.3764 57.9601 46.8778C59.4078 45.3801 59.4078 42.9506 57.9612 41.4518Z"/><path fill="#8AC9F9" d="M57.3066 42.1294C56.2196 41.0039 54.4578 41.0039 53.3705 42.1284C52.2851 43.2532 52.2851 45.0766 53.3714 46.2021C54.4578 47.3259 56.2196 47.3259 57.3066 46.2021C58.3939 45.0766 58.3939 43.2532 57.3066 42.1294Z"/><path fill="#5D8EF9" d="M11.5176 41.4526C10.0689 39.954 7.72258 39.954 6.2739 41.4526C4.82593 42.9504 4.82594 45.379 6.27461 46.8776C7.72258 48.3762 10.0689 48.3772 11.5176 46.8776C12.9655 45.38 12.9655 42.9504 11.5176 41.4526Z"/><path fill="#8AC9F9" d="M10.8637 42.1294C9.77715 41.0049 8.01559 41.0039 6.92833 42.1294C5.84083 43.2542 5.84083 45.0776 6.92833 46.2014C8.01442 47.326 9.77715 47.326 10.8637 46.2014C11.95 45.0776 11.95 43.2542 10.8637 42.1294Z"/><path fill="#5D8EF9" d="M34.7391 65.4845C33.2911 63.9859 30.9438 63.9859 29.4963 65.4845C28.0486 66.9841 28.0486 69.4117 29.4963 70.9103C30.9438 72.4082 33.2913 72.4089 34.7391 70.9103C36.1868 69.4117 36.1868 66.9831 34.7391 65.4845Z"/><path fill="#8AC9F9" d="M34.0857 66.1618C32.9987 65.0354 31.2366 65.0354 30.1494 66.1611C29.063 67.2856 29.063 69.1093 30.1494 70.2348C31.2366 71.3583 32.9987 71.3583 34.0857 70.2348C35.173 69.1091 35.172 67.2856 34.0857 66.1618Z"/></svg>