<svg xmlns="http://www.w3.org/2000/svg" width="37" height="38" fill="none" viewBox="0 0 37 38"><rect width="37" height="37" y=".207" fill="#2C293E" rx="8"/><path fill="#fff" d="M18.4998 17.6513C16.1679 17.6513 14.2776 15.761 14.2776 13.4291C14.2776 11.0972 16.1679 9.20689 18.4998 9.20689C20.8317 9.20689 22.722 11.0972 22.722 13.4291C22.722 15.761 20.8317 17.6513 18.4998 17.6513Z" opacity=".3"/><path fill="#fff" d="M9.00069 27.3616C9.40983 22.3238 13.4987 19.7625 18.4824 19.7625C23.5363 19.7625 27.6885 22.183 27.9978 27.3624C28.0101 27.5688 27.9978 28.2069 27.2048 28.2069C23.2934 28.2069 17.4811 28.2069 9.76792 28.2069C9.5032 28.2069 8.9784 27.636 9.00069 27.3616Z"/></svg>