<svg width="19" height="20" viewBox="0 0 19 20" fill="none" xmlns="http://www.w3.org/2000/svg">
  <rect opacity="0.3" y="0.206894" width="9" height="9" rx="1.5" fill="white" />
  <path fill-rule="evenodd" clip-rule="evenodd" d="M10.1333 1.70689C10.1333 0.878467 10.8049 0.206894 11.6333 0.206894H17.5C18.3284 0.206894 19 0.878467 19 1.70689V7.57356C19 8.40199 18.3284 9.07356 17.5 9.07356H11.6333C10.8049 9.07356 10.1333 8.40199 10.1333 7.57356V1.70689ZM0 11.8402C0 11.0118 0.671573 10.3402 1.5 10.3402H7.36667C8.19509 10.3402 8.86667 11.0118 8.86667 11.8402V17.7069C8.86667 18.5353 8.19509 19.2069 7.36667 19.2069H1.5C0.671573 19.2069 0 18.5353 0 17.7069V11.8402ZM11.6333 10.3402C10.8049 10.3402 10.1333 11.0118 10.1333 11.8402V17.7069C10.1333 18.5353 10.8049 19.2069 11.6333 19.2069H17.5C18.3284 19.2069 19 18.5353 19 17.7069V11.8402C19 11.0118 18.3284 10.3402 17.5 10.3402H11.6333Z" fill="white" />
</svg>
  