<svg width="37" height="38" viewBox="0 0 37 38" fill="none" xmlns="http://www.w3.org/2000/svg">
  <rect y="0.206894" width="37" height="37" rx="7" fill="#7611F7" />
  <rect opacity="0.3" x="9" y="9.20689" width="9" height="9" rx="1.5" fill="white" />
  <path fill-rule="evenodd" clip-rule="evenodd" d="M19.1333 10.7069C19.1333 9.87847 19.8049 9.20689 20.6333 9.20689H26.5C27.3284 9.20689 28 9.87847 28 10.7069V16.5736C28 17.402 27.3284 18.0736 26.5 18.0736H20.6333C19.8049 18.0736 19.1333 17.402 19.1333 16.5736V10.7069ZM9 20.8402C9 20.0118 9.67157 19.3402 10.5 19.3402H16.3667C17.1951 19.3402 17.8667 20.0118 17.8667 20.8402V26.7069C17.8667 27.5353 17.1951 28.2069 16.3667 28.2069H10.5C9.67157 28.2069 9 27.5353 9 26.7069V20.8402ZM20.6333 19.3402C19.8049 19.3402 19.1333 20.0118 19.1333 20.8402V26.7069C19.1333 27.5353 19.8049 28.2069 20.6333 28.2069H26.5C27.3284 28.2069 28 27.5353 28 26.7069V20.8402C28 20.0118 27.3284 19.3402 26.5 19.3402H20.6333Z" fill="white" />
</svg>
  