<svg xmlns="http://www.w3.org/2000/svg" width="132" height="44" fill="none" viewBox="0 0 132 44"><mask id="google" width="132" height="44" x="0" y="0" maskUnits="userSpaceOnUse" style="mask-type:alpha"><path fill="#EA4335" d="M56.4556 23.0464C56.4556 29.169 51.574 33.6805 45.5832 33.6805C39.5924 33.6805 34.7108 29.169 34.7108 23.0464C34.7108 16.8808 39.5924 12.4124 45.5832 12.4124C51.574 12.4124 56.4556 16.8808 56.4556 23.0464ZM51.6962 23.0464C51.6962 19.2205 48.8669 16.6027 45.5832 16.6027C42.2995 16.6027 39.4702 19.2205 39.4702 23.0464C39.4702 26.8341 42.2995 29.4902 45.5832 29.4902C48.8669 29.4902 51.6962 26.8293 51.6962 23.0464Z"/><path fill="#FBBC05" d="M79.9108 23.0464C79.9108 29.169 75.0292 33.6805 69.0383 33.6805C63.0475 33.6805 58.1659 29.169 58.1659 23.0464C58.1659 16.8856 63.0475 12.4124 69.0383 12.4124C75.0292 12.4124 79.9108 16.8808 79.9108 23.0464ZM75.1513 23.0464C75.1513 19.2205 72.3221 16.6027 69.0383 16.6027C65.7546 16.6027 62.9254 19.2205 62.9254 23.0464C62.9254 26.8341 65.7546 29.4902 69.0383 29.4902C72.3221 29.4902 75.1513 26.8293 75.1513 23.0464Z"/><path fill="#4285F4" d="M102.389 13.0548V32.1463C102.389 39.9996 97.6686 43.2071 92.0882 43.2071C86.8352 43.2071 83.6737 39.7599 82.4814 36.9408L86.6251 35.2483C87.363 36.9791 89.171 39.0215 92.0833 39.0215C95.6553 39.0215 97.8689 36.8592 97.8689 32.7888V31.2593H97.7028C96.6375 32.549 94.5852 33.6757 91.9954 33.6757C86.5763 33.6757 81.6116 29.0443 81.6116 23.0848C81.6116 17.0821 86.5763 12.4124 91.9954 12.4124C94.5803 12.4124 96.6326 13.539 97.7028 14.7904H97.8689V13.0596H102.389V13.0548ZM98.2061 23.0848C98.2061 19.3403 95.6602 16.6027 92.4205 16.6027C89.1368 16.6027 86.3857 19.3403 86.3857 23.0848C86.3857 26.7909 89.1368 29.4902 92.4205 29.4902C95.6602 29.4902 98.2061 26.7909 98.2061 23.0848Z"/><path fill="#34A853" d="M109.84 1.86499V33.0289H105.198V1.86499H109.84Z"/><path fill="#EA4335" d="M127.931 26.5469L131.625 28.9633C130.433 30.6941 127.559 33.6763 122.595 33.6763C116.438 33.6763 111.84 29.0065 111.84 23.0422C111.84 16.7183 116.477 12.4081 122.062 12.4081C127.686 12.4081 130.438 16.7998 131.337 19.173L131.83 20.3813L117.342 26.2688C118.451 28.4024 120.176 29.4907 122.595 29.4907C125.018 29.4907 126.699 28.3209 127.931 26.5469ZM116.56 22.7209L126.245 18.7751C125.712 17.447 124.11 16.5217 122.223 16.5217C119.805 16.5217 116.438 18.6169 116.56 22.7209Z"/><path fill="#4285F4" d="M17.1391 20.2801V15.7686H32.6341C32.7856 16.5549 32.8638 17.485 32.8638 18.4918C32.8638 21.8767 31.9207 26.0623 28.8813 29.0444C25.925 32.0649 22.1477 33.6758 17.144 33.6758C7.86946 33.6758 0.0706482 26.2636 0.0706482 17.1638C0.0706482 8.06389 7.86946 0.651672 17.144 0.651672C22.2748 0.651672 25.9299 2.62699 28.6761 5.2016L25.4315 8.38512C23.4622 6.57282 20.7942 5.16325 17.1391 5.16325C10.3665 5.16325 5.06951 10.5186 5.06951 17.1638C5.06951 23.8089 10.3665 29.1643 17.1391 29.1643C21.5321 29.1643 24.0339 27.4335 25.6367 25.8609C26.9365 24.5856 27.7916 22.7637 28.1288 20.2754L17.1391 20.2801Z"/></mask><g mask="url(#google)"><rect width="145.541" height="44.335" x="-8.154" y="-1.035" fill="#A0A2A4"/></g></svg>