<svg xmlns="http://www.w3.org/2000/svg" width="80" height="77" fill="none" viewBox="0 0 80 77"><path fill="#312DE5" d="M79.418 54.0825C76.9276 53.4578 74.9811 51.5116 74.3569 49.0218L74.2501 48.5964L74.1444 49.0218C73.5197 51.5116 71.5735 53.4578 69.0828 54.0825L68.6572 54.1903L69.0828 54.2967C71.5735 54.9203 73.5197 56.8666 74.1444 59.3575L74.2501 59.7832L74.3569 59.3575C74.9811 56.8666 76.9276 54.9203 79.418 54.2967L79.8448 54.1903L79.418 54.0825Z"/><path fill="#FFBE1B" d="M27.7991 6.28398C25.951 5.82062 24.5068 4.37641 24.0437 2.52906L23.9645 2.21289L23.8857 2.52906C23.4223 4.37664 21.9781 5.82086 20.1298 6.28398L19.8139 6.36437L20.1298 6.44312C21.9784 6.90625 23.4226 8.35023 23.8857 10.198L23.9645 10.5145L24.0437 10.198C24.507 8.35 25.9513 6.90601 27.7991 6.44312L28.1159 6.36437L27.7991 6.28398Z"/><path fill="#5D8EF9" d="M7.78055 27.6321C5.97938 27.1804 4.57242 25.7733 4.12102 23.973L4.04391 23.6653L3.96703 23.973C3.51609 25.7735 2.10844 27.1807 0.307969 27.6321L0 27.7099L0.307969 27.787C2.10867 28.2379 3.51609 29.6451 3.96703 31.4458L4.04391 31.7536L4.12102 31.4458C4.57242 29.6449 5.97961 28.2377 7.78055 27.787L8.08875 27.7099L7.78055 27.6321Z"/><path fill="#FFBE1B" d="M34.5049 2.51976C33.361 2.23289 32.4673 1.33922 32.1804 0.195703L32.1314 0L32.0827 0.195703C31.7958 1.33922 30.9021 2.23289 29.7581 2.51976L29.5624 2.56922L29.7581 2.6182C30.9021 2.90461 31.7958 3.79851 32.0827 4.94226L32.1314 5.13773L32.1804 4.94226C32.4673 3.79851 33.361 2.90461 34.5049 2.6182L34.7009 2.56922L34.5049 2.51976Z"/><path fill="#FFBE1B" d="M63.8302 50.53C63.7432 50.5412 63.6546 50.549 63.566 50.5565C63.5218 50.5604 63.4782 50.5658 63.4339 50.5689C63.3 50.5776 63.1648 50.5825 63.0277 50.5825C60.4175 50.5825 58.1039 48.9018 57.297 46.4197L56.0972 42.7302H56.096C56.6363 44.4285 56.3864 46.1436 55.5921 47.5358C55.5905 47.5384 55.5889 47.541 55.5872 47.5436C54.5956 49.2798 52.7351 50.4505 50.734 50.5708C50.6086 50.5785 50.4821 50.5825 50.3541 50.5825H49.5612C46.4846 50.5825 43.9017 48.2647 43.5699 45.2059L43.3465 43.1448L43.429 43.9065C43.8153 47.4714 41.0234 50.5825 37.4382 50.5825H36.3694C32.7851 50.5825 29.9939 47.4728 30.3785 43.9091L30.2379 45.2057C29.906 48.2647 27.3237 50.5822 24.2466 50.5822C23.6074 50.5822 22.9695 50.5982 22.3376 50.4805C22.2884 50.4714 22.2406 50.4592 22.1918 50.4489C20.5193 50.0952 19.0655 49.0225 18.2182 47.5401C17.4214 46.1432 17.171 44.4283 17.7115 42.73H17.7106L16.5108 46.4195C16.3273 46.9705 16.0418 47.5335 15.7212 48.0165C14.4966 49.8611 12.1437 50.8159 9.97713 50.5297C9.9251 50.5229 9.87424 50.5138 9.82268 50.5056C9.42424 50.4435 9.03448 50.3357 8.65784 50.1918V72.2525H65.1497V50.1913C64.7311 50.3544 64.29 50.4707 63.8302 50.53Z"/><path fill="#6CB1E2" d="M14.2512 25.5042L5.48179 41.6849C3.30538 45.7003 6.21257 50.5825 10.7798 50.5825C13.3901 50.5825 15.7034 48.9018 16.5105 46.4198L23.3121 25.5042H14.2512Z"/><path fill="#312DE5" d="M24.214 25.5042H23.3119L17.7223 42.6925C16.4562 46.5864 19.3585 50.5825 23.4532 50.5825H24.2461C27.3232 50.5825 29.9053 48.2648 30.2374 45.206L31.5518 33.0792C28.2014 31.6457 25.5445 28.9075 24.214 25.5042Z"/><path fill="#6CB1E2" d="M43.4288 43.9065L42.2553 33.0789C40.6121 33.7815 38.8032 34.1715 36.9033 34.1715C35.0035 34.1715 33.1951 33.7815 31.5521 33.0791L30.3784 43.9065C29.9921 47.4714 32.784 50.5825 36.3692 50.5825H37.438C41.0232 50.5825 43.8151 47.4714 43.4288 43.9065Z"/><path fill="#312DE5" d="M56.0845 42.6923L50.4952 25.5039H49.5928C48.2623 28.9073 45.6056 31.6452 42.255 33.0784L43.5694 45.2055C43.9013 48.2645 46.4838 50.582 49.5607 50.582H50.3536C54.4484 50.5823 57.3506 46.5864 56.0845 42.6923Z"/><path fill="#6CB1E2" d="M68.3256 41.6849L59.5562 25.5042H50.4952L57.2968 46.4198C58.1038 48.9018 60.4173 50.5825 63.0275 50.5825C67.5945 50.5823 70.502 45.7 68.3256 41.6849Z"/><path fill="#7B88FD" d="M5.03565 42.73C3.81737 46.4992 6.60315 50.5823 10.7799 50.5823C13.3902 50.5823 15.7035 48.9016 16.5107 46.4195L17.7104 42.73H5.03565Z"/><path fill="#7B88FD" d="M43.4288 43.9063L43.3015 42.73H30.5059L30.3784 43.9063C29.9921 47.4712 32.784 50.5823 36.3692 50.5823H37.438C41.0232 50.5823 43.8151 47.4712 43.4288 43.9063Z"/><path fill="#38AAE4" d="M56.0956 42.73H43.3015L43.5699 45.2057C43.9017 48.2648 46.4843 50.5823 49.5612 50.5823H50.3541C54.4353 50.5823 57.331 46.6122 56.0956 42.73Z"/><path fill="#7B88FD" d="M68.7715 42.73H56.097L57.2967 46.4195C58.1037 48.9016 60.4172 50.5823 63.0275 50.5823C67.204 50.5823 69.99 46.4994 68.7715 42.73Z"/><path fill="#8AC9F9" d="M36.7496 53.8357H15.6439V65.8308H36.7496V53.8357Z"/><path fill="#8AC9F9" d="M52.2247 52.6655C48.883 52.6655 46.1741 55.4537 46.1741 58.8933V72.253H58.2756V58.8933C58.2753 55.4539 55.5664 52.6655 52.2247 52.6655Z"/><path fill="#312DE5" d="M65.3079 72.2529H7.90552C6.90404 72.2529 6.09216 73.0646 6.09216 74.0661V76.5521H67.1218V74.0661C67.1218 73.0646 66.3097 72.2529 65.3079 72.2529Z"/><path fill="#38AAE4" d="M17.7115 42.73C16.4761 46.6122 19.3718 50.5823 23.4535 50.5823H24.2464C27.3235 50.5823 29.9056 48.2645 30.2377 45.2057L30.506 42.73H17.7115Z"/><path fill="#FFBE1B" d="M48.3718 62.3198C47.7671 62.3198 47.2763 62.8101 47.2763 63.4151C47.2763 64.0202 47.7671 64.5108 48.3718 64.5108C48.9769 64.5108 49.4677 64.0202 49.4677 63.4151C49.4675 62.8099 48.9769 62.3198 48.3718 62.3198Z"/><path fill="#FFBE1B" d="M36.9033 6.92529C29.3796 6.92529 23.2803 13.024 23.2803 20.5483C23.2803 28.0723 29.3796 34.1714 36.9033 34.1714C44.4272 34.1714 50.5268 28.0723 50.5268 20.5483C50.5268 13.024 44.4272 6.92529 36.9033 6.92529Z"/><path fill="#FFE37B" d="M36.9034 10.3228C31.2556 10.3228 26.6771 14.9001 26.6771 20.5483C26.6771 26.1956 31.2556 30.7741 36.9034 30.7741C42.5513 30.7741 47.1294 26.1956 47.1294 20.5483C47.1294 14.9001 42.5513 10.3228 36.9034 10.3228Z"/></svg>