<svg xmlns="http://www.w3.org/2000/svg" width="134" height="39" fill="none" viewBox="0 0 134 39"><mask id="hubspot" width="134" height="39" x="0" y="0" maskUnits="userSpaceOnUse" style="mask-type:alpha"><path fill="#33475B" d="M15.2228 7.02014V17.6847H5.46277V7.02014H0.829102V32.4774H5.46277V22.1592H15.2228V32.4774H19.8564V7.02014H15.2228Z"/><path fill="#33475B" d="M34.687 24.2482C34.687 25.2685 34.2831 26.2469 33.5642 26.9683C32.8453 27.6898 31.8703 28.0951 30.8536 28.0951C29.8369 28.0951 28.8619 27.6898 28.143 26.9683C27.4241 26.2469 27.0202 25.2685 27.0202 24.2482V13.3445H22.6249V24.2482C22.6249 26.4361 23.491 28.5345 25.0327 30.0815C26.5744 31.6286 28.6654 32.4978 30.8456 32.4978C33.0259 32.4978 35.1169 31.6286 36.6586 30.0815C38.2003 28.5345 39.0664 26.4361 39.0664 24.2482V13.3445H34.687V24.2482Z"/><path fill="#33475B" d="M67.2518 14.4678C67.2518 12.2328 68.7252 11.5243 70.3394 11.5243C71.6403 11.5243 73.3589 12.5176 74.4827 13.7228L77.3614 10.3191C75.9243 8.36887 73.0092 7.02014 70.6232 7.02014C65.8555 7.02014 62.407 9.8224 62.407 14.4678C62.407 23.0864 72.9048 20.3525 72.9048 25.1756C72.9048 26.6633 71.4654 27.9778 69.8172 27.9778C67.2177 27.9778 66.3754 26.702 65.1813 25.3533L61.987 28.6864C64.0302 31.2038 66.5502 32.4819 69.5697 32.4819C74.099 32.4819 77.7428 29.6455 77.7428 25.212C77.7428 15.6433 67.245 18.6165 67.245 14.4678"/><path fill="#33475B" d="M132.195 28.4106C129.598 28.4106 128.86 27.2829 128.86 25.556V17.9124H132.897V14.0394H128.86V8.92926L124.404 10.9364V26.506C124.404 30.4884 127.142 32.4955 130.897 32.4955C131.486 32.5063 132.074 32.459 132.654 32.3543L133.741 28.3377C133.251 28.3719 132.688 28.4061 132.195 28.4061"/><path fill="#33475B" d="M51.4161 13.4725C49.2389 13.4725 47.72 14.1059 46.2512 15.5526V7.17316H41.8491V22.704C41.8491 28.5181 46.0378 32.5005 50.7441 32.5005C55.9658 32.5005 60.5586 28.4475 60.5586 22.9888C60.5586 17.5985 56.3313 13.4748 51.4161 13.4748V13.4725ZM51.3888 28.0557C50.401 28.0557 49.4353 27.7617 48.614 27.211C47.7926 26.6602 47.1524 25.8774 46.7744 24.9616C46.3964 24.0457 46.2974 23.0379 46.4902 22.0657C46.6829 21.0934 47.1586 20.2003 47.8571 19.4994C48.5556 18.7984 49.4456 18.321 50.4144 18.1276C51.3833 17.9342 52.3876 18.0335 53.3002 18.4129C54.2129 18.7922 54.9929 19.4346 55.5417 20.2589C56.0906 21.0831 56.3835 22.0522 56.3835 23.0435C56.3835 24.3728 55.8573 25.6477 54.9206 26.5876C53.9839 27.5276 52.7135 28.0557 51.3888 28.0557Z"/><path fill="#33475B" d="M99.2153 22.757C99.2153 17.2891 94.6315 13.2452 89.4008 13.2452C84.6945 13.2452 80.5058 17.2276 80.5058 23.0417V38.5817H84.9079V30.1909C86.3745 31.6353 87.8956 32.2709 90.0705 32.2709C94.9857 32.2709 99.213 28.1496 99.213 22.757H99.2153ZM95.047 22.7023C95.047 23.6936 94.7541 24.6626 94.2052 25.4869C93.6564 26.3111 92.8764 26.9535 91.9637 27.3329C91.0511 27.7123 90.0468 27.8115 89.0779 27.6181C88.1091 27.4247 87.2191 26.9474 86.5206 26.2464C85.8221 25.5454 85.3464 24.6524 85.1537 23.6801C84.961 22.7078 85.0599 21.7001 85.4379 20.7842C85.8159 19.8684 86.4561 19.0856 87.2775 18.5348C88.0988 17.9841 89.0645 17.6901 90.0524 17.6901C91.377 17.6901 92.6474 18.2182 93.5841 19.1581C94.5208 20.0981 95.047 21.373 95.047 22.7023Z"/><path fill="#FF7A59" d="M113.436 13.0303V8.59222C114.021 8.31818 114.515 7.88319 114.863 7.33788C115.211 6.79257 115.397 6.15938 115.4 5.51202V5.4095C115.4 4.50315 115.041 3.63393 114.403 2.99305C113.764 2.35216 112.898 1.99212 111.995 1.99212H111.892C110.989 1.99212 110.123 2.35216 109.484 2.99305C108.846 3.63393 108.487 4.50315 108.487 5.4095V5.51202C108.49 6.15938 108.676 6.79257 109.024 7.33788C109.371 7.88319 109.866 8.31818 110.451 8.59222V13.0303C108.771 13.2882 107.189 13.9869 105.865 15.0556L93.7368 5.57581C93.8226 5.26321 93.8684 4.94089 93.873 4.61667C93.8744 3.85507 93.6506 3.11017 93.23 2.4762C92.8095 1.84223 92.211 1.34767 91.5103 1.05507C90.8096 0.762471 90.0381 0.684982 89.2936 0.832404C88.549 0.979825 87.8647 1.34553 87.3272 1.88327C86.7898 2.42101 86.4233 3.10662 86.2742 3.85338C86.1251 4.60014 86.2 5.37451 86.4895 6.07852C86.779 6.78254 87.2701 7.38459 87.9006 7.80851C88.5311 8.23243 89.2727 8.45918 90.0317 8.46009C90.6953 8.45711 91.3466 8.27958 91.9206 7.9452L103.865 17.2701C102.791 18.8967 102.231 20.8101 102.258 22.7608C102.284 24.7114 102.895 26.6089 104.012 28.2057L100.38 31.8509C100.086 31.7568 99.7799 31.7069 99.4716 31.7028C98.8485 31.7033 98.2396 31.8891 97.7217 32.2367C97.2039 32.5844 96.8003 33.0783 96.5621 33.656C96.3239 34.2337 96.2617 34.8693 96.3833 35.4825C96.505 36.0957 96.8051 36.659 97.2456 37.1011C97.6862 37.5432 98.2475 37.8443 98.8585 37.9664C99.4696 38.0885 100.103 38.0261 100.679 37.787C101.254 37.548 101.747 37.143 102.093 36.6233C102.439 36.1036 102.625 35.4926 102.625 34.8673C102.621 34.5579 102.571 34.2508 102.477 33.956L106.071 30.3496C107.243 31.2545 108.606 31.8783 110.055 32.1732C111.504 32.4681 113.002 32.4262 114.432 32.0508C115.863 31.6753 117.189 30.9763 118.309 30.0072C119.428 29.0382 120.312 27.8247 120.893 26.4599C121.473 25.0951 121.734 23.6151 121.657 22.1333C121.579 20.6514 121.165 19.2071 120.445 17.9108C119.725 16.6145 118.72 15.5008 117.505 14.6548C116.29 13.8089 114.898 13.2532 113.436 13.0303ZM111.947 27.6248C110.964 27.6239 110.003 27.3305 109.186 26.7819C108.369 26.2332 107.732 25.4538 107.357 24.5421C106.981 23.6305 106.883 22.6275 107.075 21.6601C107.268 20.6926 107.741 19.804 108.436 19.1066C109.132 18.4092 110.017 17.9342 110.982 17.7418C111.946 17.5494 112.945 17.6482 113.854 18.0256C114.762 18.403 115.538 19.0422 116.085 19.8623C116.631 20.6824 116.923 21.6466 116.923 22.6331C116.923 23.9564 116.399 25.2254 115.467 26.1611C114.535 27.0968 113.27 27.6225 111.951 27.6225"/></mask><g mask="url(#hubspot)"><rect width="145.541" height="44.335" x="-4.819" y="-2.502" fill="#A0A2A4"/></g></svg>