<svg xmlns="http://www.w3.org/2000/svg" width="194" height="42" fill="none" viewBox="0 0 194 42"><mask id="microsoft" width="194" height="42" x="0" y="0" maskUnits="userSpaceOnUse" style="mask-type:alpha"><path fill="#737373" d="M68.2981 23.7969L67.1475 27.0355H67.0516C66.8598 26.3052 66.5083 25.1939 65.933 23.8604L59.7647 8.46136H53.7242V33.0046H57.7193V17.8595C57.7193 16.907 57.7193 15.8275 57.6873 14.494C57.6553 13.8272 57.5914 13.3192 57.5595 12.9382H57.6553C57.8471 13.8907 58.0708 14.5892 58.2306 15.0337L65.6454 32.9411H68.4579L75.8087 14.875C75.9685 14.4622 76.1283 13.6367 76.2881 12.9382H76.384C76.2881 14.748 76.2242 16.3673 76.1922 17.3515V32.9093H80.4429V8.39786H74.6262L68.2981 23.7969ZM84.4699 15.3195H88.6247V32.9093H84.4699V15.3195ZM86.5792 7.88985C85.8761 7.88985 85.3008 8.14385 84.8214 8.58836C84.342 9.03287 84.0864 9.60438 84.0864 10.3029C84.0864 10.9697 84.342 11.5412 84.8214 11.9857C85.3008 12.4302 85.8761 12.6524 86.5792 12.6524C87.2824 12.6524 87.8896 12.3984 88.337 11.9857C88.8164 11.5412 89.0721 10.9697 89.0721 10.3029C89.0721 9.63613 88.8164 9.06462 88.337 8.58836C87.9216 8.14385 87.3143 7.88985 86.5792 7.88985ZM103.358 15.1607C102.591 15.002 101.792 14.9067 101.025 14.9067C99.1396 14.9067 97.4137 15.3195 95.9755 16.145C94.5373 16.9705 93.3867 18.1135 92.6517 19.5423C91.8846 21.0029 91.5011 22.6856 91.5011 24.6224C91.5011 26.3052 91.8846 27.7975 92.6197 29.1628C93.3548 30.4963 94.3775 31.5758 95.7518 32.3061C97.0622 33.0363 98.5962 33.4173 100.322 33.4173C102.304 33.4173 103.998 33.0046 105.34 32.2426L105.372 32.2108V28.4007L105.212 28.5277C104.605 28.9723 103.902 29.3533 103.198 29.5755C102.463 29.8295 101.792 29.9565 101.217 29.9565C99.555 29.9565 98.2447 29.4803 97.3178 28.4325C96.359 27.4165 95.8796 26.0195 95.8796 24.2732C95.8796 22.4634 96.359 21.0346 97.3498 19.9868C98.3406 18.9391 99.6509 18.3993 101.249 18.3993C102.591 18.3993 103.966 18.8438 105.212 19.7328L105.372 19.8598V15.8275L105.34 15.7958C104.797 15.5735 104.189 15.3195 103.358 15.1607ZM117.069 15.0337C116.046 15.0337 115.088 15.3512 114.257 16.018C113.554 16.5895 113.074 17.415 112.659 18.3993H112.627V15.3195H108.472V32.9093H112.627V23.9239C112.627 22.3999 112.946 21.1299 113.649 20.2091C114.353 19.2566 115.247 18.7803 116.334 18.7803C116.718 18.7803 117.101 18.8756 117.581 18.9391C118.028 19.0661 118.348 19.1931 118.571 19.3518L118.731 19.4788V15.3512L118.635 15.3195C118.348 15.129 117.772 15.0337 117.069 15.0337ZM128.383 14.9385C125.475 14.9385 123.142 15.7958 121.512 17.4785C119.85 19.1613 119.051 21.4791 119.051 24.4002C119.051 27.1307 119.882 29.3533 121.48 30.9725C123.078 32.5601 125.251 33.3856 127.968 33.3856C130.812 33.3856 133.081 32.5283 134.711 30.8138C136.373 29.0993 137.172 26.8132 137.172 23.9874C137.172 21.1934 136.405 18.9708 134.839 17.3515C133.337 15.7323 131.132 14.9385 128.383 14.9385ZM131.707 28.4642C130.94 29.4485 129.725 29.9248 128.223 29.9248C126.721 29.9248 125.507 29.4485 124.644 28.4007C123.781 27.4165 123.365 25.9877 123.365 24.1779C123.365 22.3046 123.813 20.8759 124.644 19.8598C125.507 18.8438 126.689 18.3358 128.191 18.3358C129.661 18.3358 130.812 18.8121 131.643 19.7963C132.474 20.7806 132.921 22.2094 132.921 24.0827C132.857 25.9877 132.506 27.48 131.707 28.4642ZM146.441 22.6221C145.13 22.0824 144.299 21.6696 143.916 21.3204C143.596 21.0029 143.436 20.5583 143.436 19.9868C143.436 19.5106 143.628 19.0343 144.107 18.7168C144.587 18.3993 145.13 18.2405 145.929 18.2405C146.632 18.2405 147.367 18.3675 148.07 18.5581C148.774 18.7486 149.413 19.0343 149.924 19.4153L150.084 19.5423V15.6687L149.988 15.637C149.509 15.4465 148.869 15.256 148.102 15.0972C147.335 14.9702 146.632 14.9067 146.057 14.9067C144.075 14.9067 142.446 15.383 141.167 16.4308C139.889 17.415 139.281 18.7486 139.281 20.3043C139.281 21.1299 139.409 21.8601 139.697 22.4634C139.985 23.0666 140.4 23.6382 140.975 24.1144C141.551 24.5589 142.382 25.0669 143.532 25.5432C144.491 25.9559 145.226 26.2735 145.673 26.5275C146.121 26.7815 146.409 27.0672 146.632 27.2895C146.792 27.5435 146.888 27.861 146.888 28.2737C146.888 29.4485 145.993 30.02 144.171 30.02C143.468 30.02 142.733 29.893 141.87 29.6073C141.007 29.3215 140.208 28.9088 139.537 28.4325L139.377 28.3055V32.3378L139.473 32.3696C140.08 32.6553 140.816 32.8458 141.71 33.0681C142.605 33.2268 143.404 33.3538 144.107 33.3538C146.249 33.3538 148.007 32.8776 149.253 31.8298C150.531 30.8138 151.203 29.512 151.203 27.8292C151.203 26.6545 150.883 25.6067 150.18 24.8129C149.253 24.0509 148.102 23.2571 146.441 22.6221ZM162.165 14.9385C159.257 14.9385 156.923 15.7958 155.293 17.4785C153.664 19.1613 152.833 21.4791 152.833 24.4002C152.833 27.1307 153.664 29.3533 155.262 30.9725C156.86 32.5601 159.033 33.3856 161.749 33.3856C164.594 33.3856 166.863 32.5283 168.493 30.8138C170.155 29.0993 170.954 26.8132 170.954 23.9874C170.954 21.1934 170.187 18.9708 168.621 17.3515C167.119 15.7323 164.913 14.9385 162.165 14.9385ZM165.457 28.4642C164.69 29.4485 163.475 29.9248 161.973 29.9248C160.439 29.9248 159.257 29.4485 158.394 28.4007C157.531 27.4165 157.115 25.9877 157.115 24.1779C157.115 22.3046 157.563 20.8759 158.394 19.8598C159.257 18.8438 160.439 18.3358 161.941 18.3358C163.379 18.3358 164.562 18.8121 165.393 19.7963C166.224 20.7806 166.671 22.2094 166.671 24.0827C166.671 25.9877 166.256 27.48 165.457 28.4642ZM193.166 18.7168V15.3195H188.979V10.1124L188.852 10.1441L184.889 11.3189L184.793 11.3507V15.3195H178.528V13.0969C178.528 12.0809 178.784 11.2872 179.232 10.7792C179.679 10.2711 180.35 10.0171 181.181 10.0171C181.756 10.0171 182.364 10.1441 183.035 10.4299L183.195 10.5251V6.93733L183.099 6.90558C182.524 6.71508 181.756 6.58807 180.766 6.58807C179.519 6.58807 178.433 6.87383 177.442 7.35009C176.451 7.88985 175.716 8.62011 175.173 9.60438C174.629 10.5569 174.342 11.6364 174.342 12.8747V15.3195H171.433V18.6851H174.342V32.9093H178.528V18.7168H184.793V27.7657C184.793 31.4806 186.55 33.3538 190.066 33.3538C190.641 33.3538 191.249 33.2586 191.824 33.1633C192.431 33.0363 192.879 32.8776 193.134 32.7506L193.166 32.7188V29.3215L193.006 29.4485C192.751 29.6073 192.527 29.7343 192.144 29.8295C191.824 29.9248 191.536 29.9565 191.313 29.9565C190.482 29.9565 189.906 29.766 189.491 29.2898C189.107 28.8453 188.916 28.115 188.916 27.0355V18.7168H193.166Z"/><path fill="#F25022" d="M0.159302 0.205688H19.7509V19.6688H0.159302V0.205688Z"/><path fill="#7FBA00" d="M21.7954 0.205627H41.3869V19.6688H21.7954V0.205627Z"/><path fill="#00A4EF" d="M0.159378 21.7008H19.7509V41.1639H0.159378V21.7008Z"/><path fill="#FFB900" d="M21.7954 21.7006H41.3869V41.1637H21.7954V21.7006Z"/></mask><g mask="url(#microsoft)"><rect width="196.589" height="44.335" x="-2.973" y="-1.481" fill="#A0A2A4"/></g></svg>