<svg xmlns="http://www.w3.org/2000/svg" width="60" height="57" fill="none" viewBox="0 0 60 57"><rect width="58.657" height="57" x=".36" fill="#87C5FF" fill-opacity=".2" rx="8"/><path fill="#fff" fill-opacity=".3" d="M39.6582 21.3669C39.9906 19.261 39.6582 17.857 38.4948 16.561C37.2207 15.1031 34.8939 14.5091 31.9024 14.5091H23.3157C22.7063 14.5091 22.2077 14.9411 22.0969 15.5351L18.496 37.6746C18.4406 38.1066 18.773 38.4846 19.2162 38.4846H24.5345L24.1467 40.7526C24.0913 41.1305 24.3683 41.4545 24.8114 41.4545H29.2987C29.8527 41.4545 30.2959 41.0765 30.3513 40.5906L31.2931 34.8667C31.3485 34.3807 31.847 34.0027 32.3456 34.0027H33.0104C37.3315 34.0027 40.7662 32.2747 41.7633 27.3068C42.1511 25.2549 41.9849 23.4729 40.877 22.2849C40.5446 21.9069 40.1568 21.6369 39.6582 21.3669Z"/><path fill="#fff" fill-opacity=".29" d="M39.6582 21.3669C39.9906 19.261 39.6582 17.857 38.4948 16.561C37.2207 15.1031 34.8939 14.5091 31.9024 14.5091H23.3157C22.7063 14.5091 22.2077 14.9411 22.0969 15.5351L18.496 37.6746C18.4406 38.1066 18.773 38.4846 19.2162 38.4846H24.5345L25.8086 30.4928C25.9194 29.8988 26.418 29.4668 27.0274 29.4668H29.5757C34.5616 29.4668 38.4394 27.5228 39.5474 21.7989C39.6028 21.6909 39.6028 21.5289 39.6582 21.3669Z"/><path fill="#fff" d="M27.3044 21.4209C27.3598 21.043 27.8584 20.557 28.3569 20.557H35.1155C35.8911 20.557 36.6667 20.611 37.3315 20.719C37.9409 20.827 39.0488 21.097 39.6028 21.4209C39.9352 19.315 39.6028 17.911 38.4394 16.615C37.2207 15.1031 34.8939 14.5091 31.9024 14.5091H23.3157C22.7063 14.5091 22.2077 14.9411 22.0969 15.5351L18.496 37.6746C18.4406 38.1066 18.773 38.4846 19.2162 38.4846H24.5345L27.3044 21.4209Z"/></svg>