<svg width="215" height="215" viewBox="0 0 215 215" fill="none" xmlns="http://www.w3.org/2000/svg">
<path d="M144.48 127.065C144.48 150.932 125.132 170.28 101.265 170.28C77.3981 170.28 58.05 150.932 58.05 127.065C58.05 103.198 77.3981 83.85 101.265 83.85C125.132 83.85 144.48 103.198 144.48 127.065Z" fill="url(#paint0_linear_196_14064)"/>
<mask id="mask0_196_14064" style="mask-type:alpha" maskUnits="userSpaceOnUse" x="58" y="83" width="87" height="88">
<path d="M144.48 127.065C144.48 150.932 125.132 170.28 101.265 170.28C77.3981 170.28 58.05 150.932 58.05 127.065C58.05 103.198 77.3981 83.85 101.265 83.85C125.132 83.85 144.48 103.198 144.48 127.065Z" fill="url(#paint1_linear_196_14064)"/>
</mask>
<g mask="url(#mask0_196_14064)">
<path d="M146.2 125.775C146.2 149.642 126.852 168.99 102.985 168.99C79.118 168.99 59.77 149.642 59.77 125.775C59.77 101.908 79.118 82.56 102.985 82.56C126.852 82.56 146.2 101.908 146.2 125.775Z" fill="#FF4343"/>
<path d="M149.21 124.485C149.21 148.352 129.862 167.7 105.995 167.7C82.128 167.7 62.78 148.352 62.78 124.485C62.78 100.618 82.128 81.27 105.995 81.27C129.862 81.27 149.21 100.618 149.21 124.485Z" fill="url(#paint2_linear_196_14064)"/>
</g>
<path d="M108.274 128.036C108.274 127.239 108.724 126.52 109.385 126.076C112.657 123.874 114.81 120.135 114.81 115.893C114.81 109.12 109.323 103.63 102.555 103.63C95.7868 103.63 90.3 109.12 90.3 115.893C90.3 119.937 92.257 123.524 95.2751 125.758C95.8839 126.208 96.2914 126.898 96.2914 127.656V148.35C96.2914 149.537 97.254 150.5 98.4414 150.5H106.124C107.311 150.5 108.274 149.537 108.274 148.35V128.036Z" fill="url(#paint3_linear_196_14064)"/>
<path fill-rule="evenodd" clip-rule="evenodd" d="M149.513 62.8797C149.761 62.4525 150.379 62.4525 150.627 62.8797L151.551 64.4647C151.581 64.5169 151.632 64.5538 151.691 64.5666L153.483 64.9548C153.967 65.0594 154.157 65.6463 153.828 66.015L152.606 67.3827C152.566 67.4278 152.546 67.4876 152.552 67.5477L152.737 69.3726C152.787 69.8644 152.288 70.2271 151.835 70.0278L150.157 69.2881C150.101 69.2638 150.039 69.2638 149.983 69.2881L148.305 70.0278C147.852 70.2271 147.353 69.8644 147.403 69.3726L147.588 67.5477C147.594 67.4876 147.574 67.4278 147.534 67.3827L146.312 66.015C145.983 65.6463 146.173 65.0594 146.656 64.9548L148.449 64.5666C148.508 64.5538 148.559 64.5169 148.589 64.4647L149.513 62.8797ZM150.256 63.0961C150.173 62.9537 149.967 62.9537 149.884 63.0961L148.961 64.6811C148.87 64.8376 148.717 64.9485 148.54 64.9869L146.747 65.3751C146.586 65.4099 146.523 65.6056 146.633 65.7285L147.855 67.0962C147.975 67.2313 148.034 67.4108 148.016 67.591L147.831 69.4159C147.814 69.5798 147.981 69.7007 148.131 69.6343L149.81 68.8946C149.976 68.8216 150.164 68.8216 150.33 68.8946L152.009 69.6343C152.159 69.7007 152.326 69.5798 152.309 69.4159L152.124 67.591C152.106 67.4108 152.165 67.2313 152.285 67.0962L153.507 65.7285C153.617 65.6056 153.554 65.4099 153.392 65.3751L151.6 64.9869C151.423 64.9485 151.27 64.8376 151.179 64.6811L150.256 63.0961Z" fill="#D14EFF"/>
<path opacity="0.796364" fill-rule="evenodd" clip-rule="evenodd" d="M51.3971 27.9558C51.537 28.4299 51.1133 28.8787 50.6319 28.7664L46.6938 27.8476C46.6351 27.8339 46.5732 27.8455 46.5234 27.8796L43.188 30.1661C42.7803 30.4456 42.2226 30.1813 42.1807 29.6888L41.8375 25.6595C41.8324 25.5994 41.8022 25.5442 41.7544 25.5073L38.5492 23.0417C38.1574 22.7403 38.2363 22.1283 38.6918 21.9362L42.4178 20.3647C42.4734 20.3413 42.5166 20.2955 42.5369 20.2386L43.8913 16.4284C44.0569 15.9626 44.6634 15.8486 44.9868 16.2224L47.6328 19.2804C47.6723 19.3261 47.7291 19.353 47.7895 19.3547L51.8318 19.4654C52.326 19.479 52.6218 20.0205 52.3662 20.4437L50.2755 23.9051C50.2443 23.9568 50.2363 24.0192 50.2533 24.0771L51.3971 27.9558ZM50.7296 28.3476C50.8901 28.385 51.0313 28.2355 50.9847 28.0774L49.8409 24.1987C49.7897 24.025 49.8138 23.8378 49.9074 23.6828L51.9982 20.2214C52.0834 20.0803 51.9848 19.8998 51.82 19.8953L47.7777 19.7845C47.5967 19.7796 47.4261 19.6987 47.3076 19.5618L44.6617 16.5038C44.5538 16.3791 44.3517 16.4172 44.2965 16.5724L42.942 20.3827C42.8814 20.5533 42.7518 20.6906 42.5849 20.7609L38.8589 22.3324C38.7071 22.3964 38.6808 22.6004 38.8114 22.7009L42.0166 25.1665C42.1601 25.2769 42.2506 25.4426 42.266 25.623L42.6091 29.6523C42.6231 29.8165 42.809 29.9045 42.9449 29.8114L46.2803 27.525C46.4297 27.4226 46.6152 27.3877 46.7915 27.4288L50.7296 28.3476Z" fill="#D14EFF"/>
<path opacity="0.73011" fill-rule="evenodd" clip-rule="evenodd" d="M40.0481 165.349C40.5283 165.467 40.7034 166.059 40.3643 166.418L38.3697 168.535C38.3283 168.579 38.3073 168.638 38.3118 168.698L38.5278 171.598C38.5646 172.091 38.0559 172.441 37.609 172.229L34.9798 170.986C34.9252 170.961 34.8623 170.959 34.8064 170.982L32.115 172.083C31.6575 172.271 31.1681 171.895 31.2309 171.405L31.6006 168.52C31.6082 168.46 31.5904 168.4 31.5514 168.354L29.6719 166.134C29.3524 165.757 29.5587 165.176 30.0444 165.084L32.902 164.544C32.9614 164.533 33.0132 164.497 33.045 164.446L34.5749 161.973C34.8349 161.552 35.4518 161.569 35.6892 162.002L37.0856 164.553C37.1146 164.606 37.1645 164.644 37.2232 164.659L40.0481 165.349ZM40.0514 166.123C40.1644 166.004 40.1061 165.806 39.946 165.767L37.121 165.076C36.9451 165.033 36.7954 164.918 36.7085 164.76L35.312 162.209C35.2329 162.064 35.0272 162.059 34.9406 162.199L33.4107 164.672C33.3154 164.826 33.1598 164.933 32.9819 164.967L30.1242 165.506C29.9623 165.537 29.8936 165.731 30.0001 165.857L31.8795 168.076C31.9965 168.214 32.0501 168.395 32.0271 168.575L31.6574 171.459C31.6365 171.623 31.7996 171.748 31.9521 171.686L34.6436 170.584C34.8111 170.515 34.9998 170.52 35.1636 170.598L37.7927 171.841C37.9417 171.911 38.1113 171.795 38.099 171.63L37.883 168.73C37.8695 168.55 37.9326 168.372 38.0568 168.24L40.0514 166.123Z" fill="#D14EFF"/>
<path opacity="0.902331" d="M189.939 113.608C190.157 113.856 190.026 114.246 189.703 114.313L185.744 115.134C185.626 115.158 185.523 115.232 185.461 115.335L183.395 118.812C183.227 119.095 182.816 119.091 182.652 118.805L180.648 115.293C180.588 115.188 180.487 115.113 180.369 115.086L176.425 114.196C176.103 114.123 175.98 113.731 176.201 113.487L178.922 110.495C179.003 110.406 179.043 110.287 179.032 110.167L178.66 106.14C178.63 105.812 178.965 105.573 179.265 105.708L182.951 107.372C183.061 107.421 183.187 107.422 183.298 107.375L187.013 105.777C187.316 105.647 187.646 105.891 187.61 106.219L187.167 110.238C187.154 110.358 187.192 110.478 187.272 110.569L189.939 113.608Z" fill="#D14EFF"/>
<path opacity="0.370759" d="M22.0418 77.0931C22.1411 76.7789 22.5425 76.6886 22.7668 76.93L24.4049 78.693C24.487 78.7815 24.6026 78.8313 24.7233 78.8303L27.1298 78.8111C27.4593 78.8084 27.6692 79.1623 27.5089 79.4502L26.3384 81.5529C26.2797 81.6583 26.268 81.7837 26.3062 81.8982L27.0681 84.1809C27.1725 84.4935 26.9008 84.8024 26.5774 84.739L24.216 84.2755C24.0975 84.2522 23.9747 84.2798 23.8776 84.3516L21.9421 85.7816C21.6771 85.9775 21.2993 85.8146 21.2597 85.4874L20.9708 83.0983C20.9563 82.9785 20.8921 82.8702 20.7938 82.8L18.8357 81.4012C18.5675 81.2096 18.6057 80.8 18.9046 80.6612L21.0875 79.6482C21.197 79.5973 21.2801 79.5028 21.3165 79.3877L22.0418 77.0931Z" fill="#D14EFF"/>
<path opacity="0.806242" d="M47.2419 122.342C47.0761 122.627 46.6647 122.627 46.4988 122.342L44.4634 118.848C44.4027 118.744 44.3009 118.67 44.1829 118.644L40.2306 117.788C39.9085 117.719 39.7814 117.327 40.0009 117.082L42.6952 114.066C42.7757 113.976 42.8145 113.856 42.8024 113.736L42.3949 109.713C42.3617 109.385 42.6945 109.143 42.9961 109.276L46.6966 110.907C46.8071 110.956 46.933 110.956 47.0434 110.907L50.7439 109.276C51.0454 109.143 51.3783 109.385 51.3451 109.713L50.9379 113.736C50.9257 113.856 50.9646 113.976 51.045 114.066L53.7395 117.081C53.9591 117.327 53.832 117.718 53.5099 117.788L49.5577 118.644C49.4397 118.67 49.3379 118.744 49.2771 118.848L47.2419 122.342Z" fill="#D14EFF"/>
<path opacity="0.547916" d="M123.67 27.9129C123.343 27.9533 123.093 27.6259 123.22 27.3215L124.768 23.5858C124.814 23.4743 124.811 23.3485 124.76 23.2391L123.048 19.5756C122.908 19.2771 123.143 18.9389 123.471 18.9649L127.503 19.2831C127.623 19.2926 127.742 19.251 127.83 19.1686L130.785 16.4081C131.026 16.1832 131.42 16.3016 131.497 16.6221L132.44 20.5544C132.468 20.6718 132.544 20.772 132.65 20.8304L136.189 22.7878C136.477 22.9473 136.486 23.3586 136.205 23.5307L132.757 25.6429C132.654 25.7059 132.582 25.8094 132.559 25.9279L131.791 29.8981C131.728 30.2217 131.34 30.3574 131.089 30.1433L128.015 27.5164C127.923 27.438 127.803 27.4017 127.683 27.4165L123.67 27.9129Z" fill="#D14EFF"/>
<path opacity="0.392959" d="M126.334 197.751C126.192 198.048 125.782 198.08 125.594 197.81L123.287 194.488C123.218 194.389 123.11 194.324 122.991 194.308L118.983 193.769C118.656 193.725 118.498 193.345 118.698 193.083L121.144 189.862C121.217 189.766 121.246 189.644 121.224 189.525L120.498 185.547C120.439 185.223 120.751 184.955 121.063 185.064L124.881 186.395C124.995 186.434 125.12 186.424 125.227 186.367L128.786 184.447C129.076 184.291 129.427 184.505 129.42 184.835L129.334 188.878C129.331 188.998 129.38 189.115 129.467 189.198L132.393 191.989C132.631 192.217 132.536 192.617 132.22 192.712L128.348 193.88C128.233 193.915 128.137 193.996 128.085 194.105L126.334 197.751Z" fill="#D14EFF"/>
<defs>
<linearGradient id="paint0_linear_196_14064" x1="101.265" y1="83.85" x2="108.145" y2="176.085" gradientUnits="userSpaceOnUse">
<stop stop-color="#759CFF"/>
<stop offset="1" stop-color="#70BAFF"/>
</linearGradient>
<linearGradient id="paint1_linear_196_14064" x1="101.265" y1="83.85" x2="101.265" y2="170.28" gradientUnits="userSpaceOnUse">
<stop stop-color="#FFAAAA"/>
<stop offset="1" stop-color="#FF9A61"/>
</linearGradient>
<linearGradient id="paint2_linear_196_14064" x1="105.995" y1="81.27" x2="105.995" y2="167.7" gradientUnits="userSpaceOnUse">
<stop stop-color="#FFAAAA"/>
<stop offset="1" stop-color="#FFAD61"/>
</linearGradient>
<linearGradient id="paint3_linear_196_14064" x1="90.3" y1="130.88" x2="111.003" y2="141.77" gradientUnits="userSpaceOnUse">
<stop stop-color="#FF7A00"/>
<stop offset="1" stop-color="#FD5050"/>
</linearGradient>
</defs>
</svg>
