<svg xmlns="http://www.w3.org/2000/svg" width="68" height="68" fill="none" viewBox="0 0 68 68"><path fill="#312DE5" d="M66.0604 11.9071C63.3979 11.2398 61.3197 9.16046 60.6525 6.49936L60.5385 6.04468L60.4249 6.49936C59.7576 9.16046 57.6794 11.2398 55.0171 11.9071L54.5627 12.0208L55.0171 12.134C57.6794 12.8012 59.7578 14.8801 60.4249 17.5422L60.5385 17.9964L60.6525 17.5422C61.32 14.8801 63.3979 12.801 66.0604 12.134L66.5151 12.0208L66.0604 11.9071Z"/><path fill="#312DE5" d="M54.9923 4.49012C53.5619 4.13176 52.4449 3.0152 52.0863 1.5848L52.0254 1.34082L51.9637 1.5848C51.6056 3.01543 50.4883 4.13176 49.0577 4.49012L48.814 4.55176L49.0577 4.61387C50.4883 4.97176 51.6056 6.08879 51.9637 7.51965L52.0254 7.76363L52.0863 7.51965C52.4449 6.08879 53.5622 4.97176 54.9923 4.61387L55.2365 4.55176L54.9923 4.49012Z"/><path fill="#FFBE1B" d="M10.455 41.9735C8.03438 41.3674 6.14414 39.4769 5.53781 37.0563L5.43398 36.6438L5.33039 37.0563C4.72407 39.4769 2.83359 41.3676 0.412967 41.9735L0 42.0778L0.412967 42.1811C2.83359 42.7872 4.7243 44.6777 5.33039 47.0983L5.43398 47.5115L5.53781 47.0983C6.14438 44.6777 8.03438 42.787 10.455 42.1811L10.8687 42.0778L10.455 41.9735Z"/><path fill="#5D8EF9" d="M66.9945 55.8233C65.063 55.3395 63.5552 53.8311 63.0708 51.8998L62.9885 51.5703L62.9056 51.8998C62.4218 53.8311 60.9134 55.3395 58.9819 55.8233L58.6526 55.9072L58.9819 55.9904C60.9134 56.4734 62.4218 57.9816 62.9056 59.9124L62.9885 60.2424L63.0708 59.9124C63.5552 57.9816 65.063 56.4732 66.9945 55.9904L67.3242 55.9072L66.9945 55.8233Z"/><path fill="url(#paint0_linear_40_7114)" d="M46.2396 25.1658C46.2396 25.1667 46.2398 25.1674 46.2398 25.1684C46.2396 25.1674 46.2396 25.1667 46.2396 25.1658Z"/><path fill="#FFBE1B" d="M48.269 22.4103C48.0091 22.1984 47.7215 22.1311 47.4353 22.1473C46.9568 25.6039 46.6218 26.9459 46.6218 26.9459C46.6218 26.9459 46.6106 26.9063 46.5914 26.8332C46.6303 27.9282 46.6626 28.9119 46.6849 29.7193C46.9057 29.7617 47.1393 29.7558 47.3571 29.6497C48.0867 29.2932 48.7549 26.4242 48.9993 25.4972C49.2433 24.5708 49.3181 23.2639 48.269 22.4103Z"/><path fill="url(#paint1_linear_40_7114)" d="M46.2863 25.429C46.287 25.4336 46.2879 25.4383 46.2888 25.443C46.2879 25.4381 46.287 25.4334 46.2863 25.429Z"/><path fill="url(#paint2_linear_40_7114)" d="M46.1428 24.5588C46.1442 24.5675 46.1454 24.5764 46.1468 24.5851C46.1454 24.5764 46.1442 24.5677 46.1428 24.5588Z"/><path fill="url(#paint3_linear_40_7114)" d="M45.9805 23.1924C45.9815 23.2022 45.9824 23.2118 45.9833 23.2217C45.9824 23.2118 45.9815 23.2022 45.9805 23.1924Z"/><path fill="url(#paint4_linear_40_7114)" d="M46.015 23.5415C46.0167 23.5558 46.0181 23.5699 46.0197 23.5842C46.0178 23.5699 46.0164 23.5558 46.015 23.5415Z"/><path fill="url(#paint5_linear_40_7114)" d="M46.0994 24.2488C46.0999 24.2525 46.1006 24.2563 46.1011 24.26C46.1006 24.2563 46.0999 24.2525 46.0994 24.2488Z"/><path fill="#FFBE1B" d="M17.4445 29.0577C17.4445 29.0577 16.717 26.2066 16.4587 24.3236C16.4163 24.0168 16.0821 23.2148 15.6921 22.1467C15.4568 22.1596 15.2238 22.236 15.0098 22.4102C13.9605 23.264 14.0362 24.5706 14.2793 25.4971C14.523 26.4241 15.1922 29.2928 15.9222 29.6495C16.4967 29.9296 17.183 29.5199 17.4492 29.3329C17.4499 29.2279 17.4506 29.1229 17.4513 29.016C17.4668 28.9122 17.5108 28.6122 17.564 28.1631V28.1622C17.4963 28.7291 17.4445 29.0577 17.4445 29.0577Z"/><path fill="#FFBE1B" d="M38.9871 43.7333C38.7304 42.9336 38.5996 42.1095 38.5464 41.3192C37.3844 42.0099 36.2442 42.5436 35.1105 43.0683C34.143 43.5155 30.6098 43.6236 29.4079 43.065C28.484 42.6347 27.2753 42.0045 26.0624 41.2922C26.0102 42.091 25.8792 42.9251 25.6197 43.7335C25.3199 44.6682 23.4522 45.4351 21.3956 46.1954C21.7926 46.7433 25.6045 51.7489 32.3767 51.7489C39.4319 51.7489 43.0755 46.579 43.3361 46.1954C41.1332 45.5035 39.3379 44.8278 38.9871 43.7333Z"/><path fill="#FFE37B" d="M46.5913 26.8322C46.4467 26.2814 45.8294 23.7391 45.8884 20.715C45.921 19.0685 46.094 17.1689 45.9039 15.9666C45.714 14.7633 45.0803 12.7999 43.6251 12.6738C43.6251 12.6738 37.1399 19.9416 23.2326 19.0284C21.8835 18.9396 20.6852 18.7268 19.615 18.42C18.2896 19.4531 17.8124 20.7546 17.8499 21.8208C17.973 25.4081 17.5103 28.6216 17.4505 29.0163C17.4463 29.6013 17.4442 30.1615 17.4442 30.6813C17.4442 34.3765 19.7205 36.7659 23.0966 39.3413C24.9798 40.7782 27.688 42.2644 29.4076 43.065C30.6095 43.6235 34.1427 43.5155 35.1102 43.0683C36.9271 42.2278 38.7608 41.3627 40.6729 39.8667C43.8058 37.4166 46.719 34.6416 46.719 31.5244C46.7193 30.7383 46.6687 29.003 46.5913 26.8322Z"/><path fill="#312DE5" d="M46.57 6.32027C44.9653 4.36558 42.9609 3.37043 40.7435 3.64207C39.056 1.44597 36.3825 -0.220433 32.1365 0.0237859C25.4646 0.407926 25.3891 3.90949 20.2856 5.44113C15.1823 6.97324 13.1271 2.94246 11.0786 4.32808C9.02973 5.71324 10.2382 10.9787 14.3843 15.3477C14.0402 18.9404 16.3434 23.4836 16.4592 24.3236C16.7175 26.2065 17.445 29.0577 17.445 29.0577C17.445 29.0577 17.9824 25.6518 17.8509 21.8207C17.8134 20.7545 18.2906 19.453 19.616 18.4199C20.6859 18.7267 21.8845 18.9395 23.2336 19.0283C37.1409 19.9414 43.6261 12.6737 43.6261 12.6737C45.0813 12.7998 45.715 14.7632 45.9049 15.9664C46.0947 17.1688 45.9218 19.0684 45.8894 20.7149C45.8229 24.1368 46.6228 26.9462 46.6228 26.9462C46.6228 26.9462 47.0015 25.4289 47.5291 21.463C47.8301 19.1957 50.824 11.5007 46.57 6.32027Z"/><path fill="#5D8EF9" d="M50.5397 48.3378L43.3525 46.1712C43.3525 46.1712 39.7033 51.7491 32.3768 51.7491C25.2119 51.7491 21.359 46.1438 21.359 46.1438L13.8703 48.3598C9.88497 49.5399 7.15051 53.2001 7.15051 57.357V67.5769H57.2142V57.3202C57.2142 53.1818 54.5027 49.5312 50.5397 48.3378Z"/><path fill="#fff" d="M32.1365 36.9588C31.5707 36.9588 31.0938 37.1489 30.7049 37.5293C30.3163 37.9094 30.1216 38.3782 30.1216 38.9353C30.1216 39.5625 30.3229 40.0509 30.7251 40.3987C31.1273 40.7489 31.5977 40.9228 32.1367 40.9228C32.6587 40.9228 33.1178 40.7451 33.5155 40.3926C33.913 40.0401 34.112 39.5536 34.112 38.9351C34.112 38.378 33.9222 37.9092 33.542 37.5291C33.1616 37.1489 32.6936 36.9588 32.1365 36.9588ZM38.1217 23.4909C37.5871 22.6781 36.8291 22.0355 35.8485 21.5623C34.8674 21.0895 33.7359 20.8533 32.4548 20.8533C31.0764 20.8533 29.8701 21.1362 28.836 21.7017C27.802 22.2675 27.0156 22.9807 26.4766 23.8425C25.9373 24.7043 25.668 25.5551 25.668 26.3941C25.668 26.8008 25.8381 27.1788 26.1782 27.5278C26.5188 27.8768 26.9357 28.0507 27.4314 28.0507C28.2702 28.0507 28.8407 27.5517 29.1416 26.553C29.4592 25.5984 29.8483 24.8763 30.3084 24.3858C30.7675 23.8952 31.4835 23.6503 32.4552 23.6503C33.2859 23.6503 33.9641 23.8934 34.4901 24.379C35.0162 24.8648 35.2792 25.4616 35.2792 26.1684C35.2792 26.5308 35.193 26.8669 35.0205 27.1762C34.848 27.4854 34.6359 27.7657 34.3841 28.0179C34.1324 28.2696 33.7232 28.6427 33.1584 29.1375C32.5124 29.7035 32.0003 30.1917 31.6202 30.6028C31.24 31.013 30.9353 31.4904 30.7054 32.0339C30.4757 32.5784 30.3609 33.2201 30.3609 33.963C30.3609 34.5553 30.5179 35.0009 30.8312 35.3016C31.1451 35.6023 31.5318 35.7523 31.9914 35.7523C32.8755 35.7523 33.4009 35.2926 33.5687 34.3732C33.6658 33.9412 33.7387 33.6382 33.7874 33.4655C33.8362 33.2934 33.9044 33.1205 33.9932 32.9487C34.0811 32.7766 34.2163 32.5868 34.397 32.3791C34.5782 32.1708 34.8194 31.9298 35.1198 31.6561C36.2069 30.6844 36.9602 29.9927 37.3804 29.5807C37.8002 29.1708 38.1623 28.6823 38.4674 28.117C38.7719 27.551 38.9245 26.8926 38.9245 26.1417C38.9237 25.188 38.6563 24.3044 38.1217 23.4909Z"/><defs><linearGradient id="paint0_linear_40_7114" x1="46.24" x2="46.24" y1="25.168" y2="25.166" gradientUnits="userSpaceOnUse"><stop stop-color="#FFE37B"/><stop offset="1" stop-color="#FFBE1B"/></linearGradient><linearGradient id="paint1_linear_40_7114" x1="46.288" x2="46.288" y1="25.443" y2="25.429" gradientUnits="userSpaceOnUse"><stop stop-color="#FFE37B"/><stop offset="1" stop-color="#FFBE1B"/></linearGradient><linearGradient id="paint2_linear_40_7114" x1="46.145" x2="46.145" y1="24.585" y2="24.559" gradientUnits="userSpaceOnUse"><stop stop-color="#FFE37B"/><stop offset="1" stop-color="#FFBE1B"/></linearGradient><linearGradient id="paint3_linear_40_7114" x1="45.982" x2="45.982" y1="23.222" y2="23.192" gradientUnits="userSpaceOnUse"><stop stop-color="#FFE37B"/><stop offset="1" stop-color="#FFBE1B"/></linearGradient><linearGradient id="paint4_linear_40_7114" x1="46.017" x2="46.017" y1="23.584" y2="23.541" gradientUnits="userSpaceOnUse"><stop stop-color="#FFE37B"/><stop offset="1" stop-color="#FFBE1B"/></linearGradient><linearGradient id="paint5_linear_40_7114" x1="46.1" x2="46.1" y1="24.26" y2="24.249" gradientUnits="userSpaceOnUse"><stop stop-color="#FFE37B"/><stop offset="1" stop-color="#FFBE1B"/></linearGradient></defs></svg>