<svg xmlns="http://www.w3.org/2000/svg" width="74" height="74" fill="none" viewBox="0 0 74 74"><path fill="#312DE5" d="M62.0405 17.9798L36.5302 6.05455C36.0099 5.81103 35.4584 5.68799 34.8905 5.68799C34.3219 5.68799 33.7714 5.81103 33.252 6.05432L7.74027 17.98C6.25972 18.6719 5.33839 20.2886 5.44737 22.0033C5.90792 29.2054 7.58956 42.8055 13.6831 52.9626C21.2639 65.5978 30.4475 68.9948 34.0437 69.8678C34.5978 70.0017 35.1832 70.0035 35.7394 69.8678C39.3338 68.9948 48.5175 65.5978 56.0979 52.9626C62.1914 42.8074 63.8728 29.2066 64.3339 22.0028C64.4428 20.2891 63.5213 18.6719 62.0405 17.9798Z"/><path fill="#5D8EF9" d="M63.5883 14.6675L38.0789 2.74275C36.0619 1.79939 33.717 1.80057 31.7035 2.74252L6.1927 14.6675C3.36051 15.9908 1.5952 19.0323 1.79864 22.2357C2.28075 29.7695 4.05684 44.0237 10.5486 54.8441C18.8386 68.6628 29.138 72.4381 33.1831 73.422C33.7428 73.5559 34.3177 73.6255 34.8905 73.6255C35.4645 73.6255 36.0392 73.5559 36.5998 73.4202C40.6432 72.4381 50.9426 68.6628 59.2327 54.8441C65.7235 44.0256 67.5005 29.7702 67.9826 22.2353C68.1861 19.0328 66.4205 15.9917 63.5883 14.6675ZM64.3339 22.0025C63.8729 29.206 62.1915 42.807 56.0979 52.9623C48.5173 65.5974 39.3338 68.9945 35.7394 69.8675C35.1832 70.0032 34.5978 70.0013 34.0437 69.8675C30.4475 68.9945 21.2639 65.5974 13.6831 52.9623C7.58957 42.8052 5.90793 29.2053 5.44738 22.003C5.3384 20.2883 6.25973 18.6716 7.74028 17.9797L33.252 6.054C33.7714 5.81096 34.3219 5.68768 34.8905 5.68768C35.4584 5.68768 36.0099 5.81072 36.5302 6.05424L62.0405 17.9795C63.5213 18.6718 64.4429 20.289 64.3339 22.0025Z"/><path fill="#312DE5" d="M58.1626 3.53531C56.5552 3.13336 55.303 1.87969 54.8975 0.273986L54.8298 0L54.7618 0.273986C54.3584 1.87969 53.1045 3.13336 51.4967 3.53531L51.2246 3.60469L51.4967 3.6743C53.1043 4.07602 54.3584 5.32992 54.7618 6.9361L54.8298 7.21008L54.8975 6.9361C55.3027 5.33016 56.555 4.07602 58.1626 3.6743L58.4349 3.60469L58.1626 3.53531Z"/><path fill="#FFBE1B" d="M8.0672 61.3761C6.19969 60.9083 4.74141 59.4497 4.27454 57.5825L4.19321 57.2649L4.11282 57.5825C3.64594 59.4497 2.18742 60.908 0.317579 61.3761L0 61.4562L0.317579 61.5369C2.18766 62.0044 3.64594 63.4629 4.11282 65.3302L4.19321 65.6497L4.27454 65.3302C4.74118 63.4629 6.19969 62.0047 8.0672 61.5369L8.38758 61.4562L8.0672 61.3761Z"/><path fill="#5D8EF9" d="M73.1675 56.2579C70.5345 55.5991 68.4781 53.5408 67.8176 50.9078L67.7058 50.4597L67.5929 50.9078C66.934 53.5408 64.8774 55.5993 62.2425 56.2579L61.7944 56.3721L62.2425 56.4843C64.8774 57.1432 66.9343 59.1996 67.5929 61.8325L67.7058 62.2825L67.8176 61.8325C68.4781 59.1996 70.5345 57.1429 73.1675 56.4843L73.6175 56.3721L73.1675 56.2579Z"/><path fill="#5D8EF9" d="M65.6628 65.8762C63.9891 65.4567 62.6822 64.1481 62.262 62.4754L62.1914 62.1897L62.119 62.4754C61.7006 64.1481 60.394 65.4567 58.7194 65.8762L58.4346 65.9477L58.7194 66.0192C60.394 66.4387 61.7006 67.7453 62.119 69.4181L62.1914 69.7056L62.262 69.4181C62.6822 67.7453 63.9891 66.4387 65.6628 66.0192L65.9485 65.9477L65.6628 65.8762Z"/><path fill="#8AC9F9" d="M34.8905 27.8491C26.2648 27.8491 19.2705 34.8429 19.2705 43.4704C19.2705 52.0966 26.2648 59.0908 34.8905 59.0908C43.5199 59.0908 50.5113 52.0966 50.5113 43.4704C50.5116 34.8429 43.5201 27.8491 34.8905 27.8491Z"/><path fill="#6CB1E2" d="M34.8905 14.7385C28.8825 14.7385 23.9951 19.6264 23.9951 25.6337V32.2822C25.0744 31.2308 26.3046 30.335 27.6511 29.6291V25.6339C27.6511 21.6425 30.8991 18.3948 34.8907 18.3948C38.8833 18.3948 42.1313 21.6423 42.1313 25.6339V29.6291C43.4778 30.3348 44.708 31.2306 45.7873 32.2817V25.6339C45.7871 19.6264 40.8994 14.7385 34.8905 14.7385Z"/><path fill="#FFBE1B" d="M34.8905 32.0872C28.6053 32.0872 23.5093 37.1827 23.5093 43.4705C23.5093 49.7558 28.605 54.8529 34.8905 54.8529C41.1778 54.8529 46.2743 49.756 46.2743 43.4705C46.2746 37.1827 41.1778 32.0872 34.8905 32.0872Z"/><path fill="#FFE37B" d="M34.8905 34.9258C30.1725 34.9258 26.347 38.7503 26.347 43.4704C26.347 48.1884 30.1725 52.0145 34.8905 52.0145C39.6105 52.0145 43.4351 48.1884 43.4351 43.4704C43.4351 38.7505 39.6105 34.9258 34.8905 34.9258Z"/></svg>