<svg width="59" height="57" viewBox="0 0 59 57" fill="none" xmlns="http://www.w3.org/2000/svg">
<rect x="0.0725098" width="58.657" height="57" rx="8" fill="#87C5FF" fill-opacity="0.2"/>
<path fill-rule="evenodd" clip-rule="evenodd" d="M26.918 22.5335C26.918 21.3787 27.8854 20.9346 29.4877 20.9346C31.7853 20.9346 34.6875 21.6156 36.985 22.8296V15.8712C34.4758 14.894 31.9969 14.5091 29.4877 14.5091C23.3507 14.5091 19.2695 17.6478 19.2695 22.8888C19.2695 31.0613 30.7574 29.7584 30.7574 33.2821C30.7574 34.6442 29.5481 35.0883 27.8552 35.0883C25.346 35.0883 22.1415 34.0816 19.6021 32.7195V39.7668C22.4136 40.9512 25.2553 41.4546 27.8552 41.4546C34.1433 41.4546 38.4664 38.4047 38.4664 33.1044C38.4361 24.2805 26.918 25.8499 26.918 22.5335Z" fill="white"/>
</svg>
