<svg xmlns="http://www.w3.org/2000/svg" width="363" height="23" fill="none" viewBox="0 0 363 23"><path fill="url(#paint0_radial_26_66)" d="M23.6446 12.1669C28.3408 12.6496 31.2702 12.7973 34.5342 12.2739C35.0401 13.0656 38.3946 12.4998 39.4969 12.7659L39.4065 12.8084C42.3137 12.318 45.2954 13.5148 48.0678 13.0652C47.9774 13.1076 47.8806 13.3319 47.2589 13.3102C49.2604 13.289 52.0201 13.2033 52.1819 13.6642C56.9828 13.6953 63.6805 14.1568 66.8146 13.5377L66.5877 13.6665C68.3815 13.2284 68.8558 13.6546 70.8177 13.4955C70.9049 13.5441 71.0809 13.5958 71.0349 13.6397C72.962 13.2061 76.6336 13.7441 78.1498 13.615L78.2276 13.9363L82.0499 13.9788L80.6304 13.8836C81.1475 13.0821 83.4979 14.5301 86.2703 14.0806C88.8428 14.2615 91.5708 12.5356 94.2211 13.038C95.5232 12.6737 93.0886 13.6357 95.0093 13.3841C95.0378 13.8404 94.1116 13.626 94.5874 14.0068C96.4605 13.8446 97.6357 14.5686 100 14.3324L100.078 14.6539C103.12 14.1227 105.747 15.3071 107.81 14.7873C110.928 14.623 109.862 15.8606 113.126 15.3371L114.354 15.8353C115.727 15.9743 115.35 15.3237 116.896 15.6054C116.798 15.8751 118.842 15.901 117.945 16.1429C121.393 16.7186 125.028 15.7528 129.619 16.6871C130.615 16.1756 132.914 16.5745 133.683 16.1916C133.808 16.4236 138.3 16.3983 135.705 16.8541C135.481 16.8918 135.082 16.8778 135.129 16.7884L134.807 17.0959C137.405 17.824 139.572 16.8981 142.143 17.1245C141.391 17.0072 140.369 16.9714 141.044 16.7673L143.44 16.8966L142.942 17.1524L146.533 17.4598L146.057 17.079C147.827 17.3229 148.384 17.9342 150.399 17.5038C151.297 17.262 148.772 16.9917 150.598 16.9188C152.943 17.2284 156.439 17.7147 159.411 17.9095C159.159 17.4909 159.957 17.5644 160.759 17.5014L160.837 17.8227C164.05 17.4796 161.966 18.5907 165.132 18.337L165.725 17.9024C168.591 17.3196 167.256 18.6388 170.44 17.8395C169.195 17.8415 169.889 17.0917 171.394 17.2809L170.983 17.5853C171.83 17.5238 172.145 17.3982 172.675 17.5078C172.18 17.6726 172.393 17.9532 173.638 17.9511L172.78 18.3309L175.154 17.8219C176.962 18.2493 179.865 17.8953 180.604 18.3764C180.604 18.3764 184.548 18.7418 185.454 18.2726C184.643 18.563 186.814 18.7755 186.18 19.1176C187.214 18.7895 190.244 18.622 191.43 19.0276L191.206 19.0654C195.633 19.6297 198.864 18.7864 202.798 19.4246C202.635 19.0092 204.714 19.3094 204.243 18.7922C208.391 18.4362 211.756 20.1017 213.277 18.5613C215.146 18.5355 215.485 19.0027 216.459 19.1277L216.012 19.2031C219.525 19.1892 220.546 19.2249 223.165 19.3619C224.457 19.2705 224.705 18.5507 227.052 18.8147C226.287 19.0612 227.222 19.0483 228.11 19.0793C227.531 19.1046 227.35 19.1894 228.497 19.4571C228.678 19.3724 228.901 19.3346 229.169 19.2984C229.168 19.3439 229.212 19.3454 229.211 19.3909C230.679 19.3511 230.416 19.2509 229.751 19.1822C229.797 19.1383 229.71 19.0896 229.536 18.9925C231.033 19.409 233.756 19.0944 233.916 19.6008C238.317 19.6179 241.488 19.2278 245.136 19.1731C245.526 19.4599 244.674 19.6577 243.605 19.7114L246.184 19.7104C246.171 20.0742 244.666 19.8851 243.865 19.9026C246.953 20.6024 250.236 19.5333 253.859 20.2062L254.623 19.9596L254.844 20.0129C254.849 19.8764 255.656 19.677 256.19 19.6501C256.712 19.9871 256.121 20.3762 257.941 20.4398C259.351 20.8077 261.987 20.4444 263.859 20.3277C262.839 20.2465 263.201 20.0771 263.605 19.9546C264.493 19.9856 265.015 20.3225 265.686 20.2093L265.76 20.6218C265.419 20.2001 268.13 20.2492 268.446 20.1237C268.923 20.459 267.059 20.3484 266.829 20.568C270.428 20.6481 268.65 20.6315 272.204 20.7101C274.125 20.4585 271.863 20.2885 272.809 19.9573C274.499 19.9253 276.152 19.7098 278.098 20.0054L277.489 19.6198C280.698 19.4132 282.606 19.5253 284.723 20.009C308.545 17.7449 289.844 15.9537 289.844 15.9537C280.549 14.764 275.668 15.7318 264.557 15.617C254.793 15.0939 252.245 14.231 242.108 14.1957C237.269 13.9812 232.113 13.9378 227.403 13.8643C225.162 14.3779 221.185 13.6472 218.548 14.0559L217.538 13.7018C216.599 13.8512 215.53 13.905 214.648 13.6921L214.695 13.6026C213.311 13.7819 211.806 13.5928 211.09 13.7044L211.138 13.615L209.493 13.6031L209.765 13.476C207.357 13.6651 204.914 13.5798 202.786 13.4144L202.949 13.8299C198.347 13.2139 196.631 13.9735 192.474 13.3275L192.521 13.238C187.2 14.0994 184.198 12.219 178.745 13.0302C179.416 12.9171 178.441 12.8374 178.534 12.7041C176.044 12.7082 173.332 12.7045 173.305 13.4776C171.484 13.414 171.847 13.1991 171.592 12.8715C171.579 13.2352 170.02 13.3173 168.599 13.2677L169.27 13.1545L165.18 13.1483L165.957 13.8129C163.787 13.555 165.451 13.0212 163.359 13.0847L163.384 13.6321C160.412 13.4372 158.664 12.5566 155.792 12.0465C143.765 11.3989 130.795 12.3119 119.593 10.9646L119.119 10.5381C118.917 9.93923 115.98 11.2936 115.599 10.734L114.302 10.9618C113.95 10.8585 113.155 10.6942 113.826 10.5811C112.629 10.4937 112.579 10.6285 111.731 10.7355L110.456 10.3268C105.714 9.888 101.649 10.429 96.6351 10.1173C90.6654 9.18038 79.3173 9.46707 72.7766 9.60289C63.5982 10.1474 53.0211 7.45606 43.616 8.12926C43.3083 8.02746 42.5026 8.18148 42.4994 8.27243L33.9317 7.88209C33.9317 7.88209 -7.67119 6.20173 23.7778 12.1716L23.6446 12.1669Z"/><path fill="url(#paint1_radial_26_66)" d="M15.1068 17.9388C21.1004 18.0482 24.827 17.9634 28.9248 17.1829C29.6291 17.9323 33.8382 17.1024 35.2571 17.2805L35.1458 17.33C38.7937 16.6107 42.6697 17.568 46.1498 16.9001C46.0385 16.9496 45.9336 17.1809 45.1434 17.2085C47.68 17.0288 51.1729 16.7248 51.4145 17.1716C57.5052 16.8223 66.0354 16.752 69.9607 15.8865L69.6833 16.0329C71.9234 15.4539 72.5585 15.8414 75.0339 15.5273C75.1484 15.5689 75.3757 15.6064 75.3208 15.6539C77.7302 15.0689 82.4289 15.3146 84.3415 15.0657L84.4655 15.38L89.3161 15.1196L87.5085 15.1371C88.1007 14.2969 91.196 15.5547 94.6762 14.8868C97.9528 14.8635 101.276 12.9264 104.676 13.2174C106.299 12.751 103.288 13.9032 105.703 13.5001C105.776 13.9529 104.584 13.8124 105.218 14.1545C107.58 13.8444 109.128 14.4733 112.108 14.0505L112.232 14.3649C116.048 13.5943 119.472 14.5674 122.048 13.8856C125.989 13.4748 124.735 14.7933 128.833 14.0128L130.429 14.4124C132.182 14.4422 131.652 13.8233 133.635 13.9817C133.532 14.2585 136.126 14.1224 135.007 14.4347C139.425 14.7357 143.959 13.4847 149.855 14.0527C151.078 13.4637 154.024 13.6795 154.969 13.2367C155.146 13.4581 160.84 13.0772 157.586 13.7372C157.305 13.7925 156.797 13.8102 156.85 13.7173L156.467 14.0495C159.819 14.5698 162.493 13.4748 165.771 13.4969C164.808 13.4395 163.51 13.4848 164.349 13.2279L167.398 13.167L166.787 13.4615L171.365 13.4836L170.731 13.1416C172.995 13.2446 173.75 13.8102 176.272 13.2213C177.391 12.909 174.168 12.8394 176.477 12.6222C179.476 12.7451 183.948 12.9532 187.732 12.9121C187.379 12.5146 188.397 12.5247 189.409 12.3983L189.533 12.7126C193.581 12.1159 191.026 13.389 195.021 12.8853L195.739 12.4049C199.327 11.5966 197.738 13.0181 201.713 11.9687C200.134 12.0693 200.954 11.2667 202.878 11.3361L202.381 11.6722C203.45 11.5438 203.84 11.3936 204.521 11.4609C203.906 11.6644 204.198 11.9274 205.777 11.8267L204.719 12.2734L207.689 11.5778C210.016 11.8608 213.669 11.2779 214.644 11.6991C214.644 11.6991 219.675 11.7511 220.786 11.2115C219.781 11.5652 222.552 11.6052 221.774 11.9966C223.06 11.5875 226.888 11.1805 228.425 11.491L228.144 11.5464C233.802 11.7586 237.832 10.6617 242.873 10.9865C242.633 10.5851 245.294 10.7199 244.655 10.2413C249.887 9.55785 254.286 10.9522 256.093 9.2956C258.461 9.12187 258.928 9.56087 260.173 9.60846L259.612 9.71906C264.065 9.42694 265.364 9.38166 268.695 9.31085C270.327 9.11728 270.584 8.37987 273.581 8.45731C272.631 8.76366 273.815 8.67674 274.944 8.63732C274.212 8.70841 273.989 8.80732 275.465 8.98345C275.687 8.88462 275.968 8.82925 276.305 8.77195C276.306 8.81742 276.363 8.8154 276.364 8.86088C278.224 8.70489 277.882 8.62583 277.034 8.60992C277.089 8.56247 276.974 8.5209 276.745 8.43784C278.677 8.73462 282.105 8.20515 282.349 8.69748C287.931 8.36594 291.921 7.72583 296.543 7.38232C297.06 7.63743 295.996 7.90212 294.644 8.04037L297.915 7.83517C297.927 8.19896 296.004 8.12953 294.989 8.21048C298.961 8.66368 303.039 7.33758 307.686 7.72165L308.636 7.41518L308.92 7.45084C308.915 7.31442 309.923 7.05159 310.599 6.98247C311.287 7.27713 310.568 7.71203 312.882 7.63123C314.699 7.88648 318.013 7.31542 320.377 7.05075C319.078 7.05061 319.523 6.853 320.026 6.69885C321.155 6.65943 321.843 6.95399 322.685 6.78801L322.812 7.19345C322.346 6.79996 325.787 6.63424 326.178 6.48402C326.81 6.78066 324.438 6.81789 324.163 7.05512C328.733 6.85 326.477 6.97427 330.991 6.77112C333.407 6.36806 330.525 6.3777 331.698 5.97252C333.839 5.80668 335.918 5.46092 338.409 5.60157L337.606 5.2653C341.659 4.80507 344.087 4.76579 346.811 5.08045C376.841 0.935781 352.984 0.630688 352.984 0.630688C341.102 0.180574 334.99 1.53222 320.889 2.29779C308.466 2.54949 305.166 1.89082 292.309 2.6585C286.156 2.82785 279.613 3.19294 273.634 3.4928C270.833 4.1825 265.733 3.76866 262.42 4.38515L261.111 4.11213C259.932 4.33542 258.581 4.47375 257.446 4.33128L257.499 4.23827C255.757 4.52674 253.834 4.45741 252.935 4.62536L252.989 4.53236L250.902 4.6508L251.236 4.50256C248.198 4.88183 245.093 4.99027 242.381 4.99392L242.621 5.39528C236.736 5.14552 234.62 6.03895 229.297 5.724L229.35 5.63099C222.67 6.91143 218.714 5.27407 211.864 6.51494C212.705 6.34895 211.462 6.34681 211.57 6.20644C208.413 6.40776 204.973 6.61889 205 7.39195C202.686 7.47275 203.13 7.22964 202.78 6.92315C202.793 7.28694 200.822 7.49228 199.016 7.55535L199.858 7.38937L194.67 7.7071L195.708 8.30833C192.937 8.22301 195.004 7.55886 192.356 7.78791L192.432 8.33174C188.647 8.37284 186.361 7.63311 182.678 7.35196C167.375 7.6587 150.999 9.59648 136.687 9.14017L136.052 8.75246C135.749 8.17116 132.131 9.75446 131.604 9.22651L129.977 9.5565C129.522 9.48132 128.502 9.38044 129.343 9.21445C127.818 9.22219 127.766 9.36053 126.699 9.5344L125.049 9.22782C119.001 9.16586 113.889 10.0273 107.506 10.1136C99.8617 9.65209 85.4935 10.8368 77.2097 11.4903C65.6135 12.7603 51.9871 10.9142 40.1134 12.3304C39.7152 12.2533 38.7056 12.4707 38.7088 12.5616L27.8129 12.851C27.8129 12.851 -25.0784 14.4704 15.2761 17.9328L15.1068 17.9388Z"/><defs><radialGradient id="paint0_radial_26_66" cx="0" cy="0" r="1" gradientTransform="translate(154.379 14.4682) rotate(92) scale(3.56192 142.469)" gradientUnits="userSpaceOnUse"><stop stop-color="#F9EE30"/><stop offset="1" stop-color="#F6B466"/></radialGradient><radialGradient id="paint1_radial_26_66" cx="0" cy="0" r="1" gradientTransform="translate(181.078 9.87879) rotate(88) scale(3.56192 181.064)" gradientUnits="userSpaceOnUse"><stop stop-color="#F9EE30"/><stop offset="1" stop-color="#F6B466"/></radialGradient></defs></svg>